<?xml version="1.0" standalone="no"?>
<!DOCTYPE svg PUBLIC "-//W3C//DTD SVG 1.1//EN" "http://www.w3.org/Graphics/SVG/1.1/DTD/svg11.dtd" >
<svg xmlns="http://www.w3.org/2000/svg" xmlns:xlink="http://www.w3.org/1999/xlink" version="1.1">
<metadata>
Created by FontForge 20161003 at Sat Aug 24 18:21:44 2019
 By www-data
(c) 1989, 1995, 2002 Adobe Systems Incorporated. All rights reserved.
</metadata>
<defs>
<font id="AvenirLTStdBookOblique" horiz-adv-x="556" >
  <font-face 
    font-family="AvenirLTStdBookOblique"
    font-weight="350"
    font-style="oblique"
    font-stretch="normal"
    units-per-em="1000"
    panose-1="2 11 5 2 2 2 3 2 2 4"
    ascent="756"
    descent="-244"
    x-height="468"
    cap-height="708"
    bbox="-167 -288 1044 920"
    underline-thickness="50"
    underline-position="-150"
    slope="-8"
    unicode-range="U+0020-FB02"
  />
<missing-glyph horiz-adv-x="598" 
d="M98 0v700h500v-700h-500zM348 395l170 255h-340zM378 350l170 -255v510zM178 50h340l-170 255zM148 605v-510l170 255z" />
    <glyph glyph-name="f_i" unicode="fi" horiz-adv-x="537" 
d="M356 468l-9 -60h-111l-57 -408h-66l57 408h-99l9 60h99l18 128q24 172 181 172q24 0 56 -7l-20 -60q-28 7 -50 7q-51 0 -72.5 -31t-29.5 -89l-17 -120h111zM516 468l-66 -468h-66l66 468h66zM556 648q-3 -20 -19.5 -34t-35.5 -14t-31.5 14t-9.5 34t19.5 34t35.5 14
t31.5 -14t9.5 -34z" />
    <glyph glyph-name="f_l" unicode="fl" horiz-adv-x="537" 
d="M356 468l-9 -60h-111l-57 -408h-66l57 408h-99l9 60h99l18 128q24 172 181 172q24 0 56 -7l-20 -60q-28 7 -50 7q-51 0 -72.5 -31t-29.5 -89l-17 -120h111zM556 756l-106 -756h-66l106 756h66z" />
    <glyph glyph-name=".notdef" horiz-adv-x="598" 
d="M98 0v700h500v-700h-500zM348 395l170 255h-340zM378 350l170 -255v510zM178 50h340l-170 255zM148 605v-510l170 255z" />
    <glyph glyph-name=".null" horiz-adv-x="0" 
 />
    <glyph glyph-name="nonmarkingreturn" horiz-adv-x="333" 
 />
    <glyph glyph-name="space" unicode=" " horiz-adv-x="278" 
 />
    <glyph glyph-name="exclam" unicode="!" horiz-adv-x="278" 
d="M275 708l-73 -516h-72l73 516h72zM200 48q-3 -22 -21 -38t-41 -16t-36 16t-10 38t20.5 38t40.5 16t36.5 -16t10.5 -38z" />
    <glyph glyph-name="quotedbl" unicode="&#x22;" horiz-adv-x="519" 
d="M223 473l34 235h60l-34 -235h-60zM368 473l34 235h60l-34 -235h-60z" />
    <glyph glyph-name="numbersign" unicode="#" 
d="M107 0l60 214h-102l9 60h110l44 162h-108l9 60h117l59 212h61l-59 -212h133l59 212h61l-59 -212h90l-9 -60h-99l-44 -162h95l-9 -60h-103l-60 -214h-61l60 214h-133l-60 -214h-61zM289 436l-44 -162h133l44 162h-133z" />
    <glyph glyph-name="dollar" unicode="$" 
d="M311 405l35 252q-53 -4 -92 -40t-47 -88q-6 -47 21.5 -75t82.5 -49zM346 314l-37 -264q30 0 59 10.5t56 41t34 76.5q15 94 -112 136zM261 49l39 279q-82 26 -129 71.5t-36 127.5q11 83 76 136t144 59l10 70h48l-9 -68q111 0 173 -85l-63 -48q-15 34 -48 51t-72 16
l-37 -267q42 -16 70 -30.5t57 -39.5t40.5 -61t5.5 -82q-12 -82 -76.5 -135.5t-153.5 -58.5l-10 -68h-48l9 66q-66 4 -118 34.5t-77 75.5l66 43q26 -40 66 -63.5t73 -22.5z" />
    <glyph glyph-name="percent" unicode="%" horiz-adv-x="833" 
d="M467 545q-11 -74 -69 -124.5t-132 -50.5t-118 50.5t-33 124.5q10 73 68 124t132 51t118 -50.5t34 -124.5zM407 545q7 49 -22.5 82t-77.5 33t-86.5 -33t-45.5 -82t22 -82t77 -33t87 33t46 82zM818 163q-11 -74 -69 -124.5t-132 -50.5t-118 50.5t-33 124.5t69 124.5
t132 50.5t118 -50.5t33 -124.5zM758 163q7 49 -22.5 82t-77.5 33t-86.5 -33t-45.5 -82t22.5 -82t77.5 -33t86.5 33t45.5 82zM767 712l-554 -743l-49 27l556 743z" />
    <glyph glyph-name="ampersand" unicode="&#x26;" horiz-adv-x="704" 
d="M713 383l-161 -219l136 -164h-102l-85 104q-55 -61 -110 -91.5t-124 -30.5q-92 0 -149 55t-44 147q18 132 190 209q-71 91 -59 166q10 77 66.5 122t133.5 45q74 0 116.5 -42t32.5 -117q-9 -62 -57.5 -104.5t-124.5 -79.5l139 -168l121 168h81zM482 567q6 41 -19 67
t-66 26q-45 0 -79.5 -28.5t-41.5 -75.5q-5 -32 15 -69t41 -58q4 2 22.5 11.5t25 13t22.5 13t23.5 15.5t19.5 17t18 20.5t11.5 22t7.5 25.5zM462 152l-159 196q-77 -40 -110.5 -75.5t-40.5 -89.5q-9 -58 29 -96.5t97 -38.5q53 0 94.5 26.5t89.5 77.5z" />
    <glyph glyph-name="quotesingle" unicode="'" horiz-adv-x="260" 
d="M166 473l34 235h60l-34 -235h-60z" />
    <glyph glyph-name="parenleft" unicode="(" horiz-adv-x="260" 
d="M302 736l49 -34q-84 -110 -129 -203t-62 -211q-16 -116 1.5 -205.5t69.5 -202.5l-58 -40q-54 93 -74.5 210t-4.5 238q17 117 70.5 234.5t137.5 213.5z" />
    <glyph glyph-name="parenright" unicode=")" horiz-adv-x="260" 
d="M39 -160l-49 34q84 110 129 203t61 211q17 116 -0.5 205.5t-69.5 202.5l58 40q54 -93 74.5 -210t3.5 -238q-16 -117 -69.5 -234.5t-137.5 -213.5z" />
    <glyph glyph-name="asterisk" unicode="*" horiz-adv-x="444" 
d="M352 708l-21 -143l147 45l13 -56l-147 -45l73 -121l-54 -36l-74 124l-110 -124l-42 36l107 121l-135 45l29 56l133 -45l21 143h60z" />
    <glyph glyph-name="plus" unicode="+" horiz-adv-x="666" 
d="M441 558l-31 -225h225l-9 -60h-225l-31 -225h-60l31 225h-225l9 60h225l31 225h60z" />
    <glyph glyph-name="comma" unicode="," horiz-adv-x="278" 
d="M226 95l-114 -235h-67l100 235h81z" />
    <glyph glyph-name="hyphen" unicode="-" horiz-adv-x="333" 
d="M333 273l-9 -66h-257l9 66h257z" />
    <glyph glyph-name="period" unicode="." horiz-adv-x="278" 
d="M200 48q-3 -22 -21 -38t-41 -16t-36 16t-10 38t20.5 38t40.5 16t36.5 -16t10.5 -38z" />
    <glyph glyph-name="slash" unicode="/" horiz-adv-x="370" 
d="M464 706l-404 -724l-55 19l405 725z" />
    <glyph glyph-name="zero" unicode="0" 
d="M379 720q58 0 99 -23.5t61.5 -59.5t29.5 -87t7.5 -97.5t-8.5 -98.5t-19 -98.5t-35 -97.5t-53.5 -87t-78.5 -59.5t-106 -23.5q-49 0 -86 16t-58 44.5t-34 63t-16 78t-1.5 82.5t7.5 82q7 53 19 99t35 97t53.5 87t78 59.5t105.5 23.5zM370 654q-170 0 -210 -300
q-43 -300 126 -300q167 0 210 300q40 300 -126 300z" />
    <glyph glyph-name="one" unicode="1" 
d="M448 708l-100 -708h-72l87 618l-143 -112l-37 54l201 148h64z" />
    <glyph glyph-name="two" unicode="2" 
d="M507 66l-9 -66h-450l12 83l322 287q31 28 50 47.5t38.5 51t23.5 61.5q8 57 -26 90.5t-93 33.5q-53 0 -95.5 -30t-61.5 -81l-75 8q26 78 90 123.5t146 45.5q91 0 145.5 -48.5t42.5 -135.5q-5 -39 -21 -73t-45 -67.5t-50.5 -53.5t-61.5 -55l-254 -221h372z" />
    <glyph glyph-name="three" unicode="3" 
d="M252 338l9 66h37q68 0 116 32t57 98q8 57 -22 88.5t-92 31.5q-90 0 -146 -78l-59 32q78 112 212 112q87 0 139 -49.5t40 -134.5q-7 -56 -48 -101t-94 -61l2 -2q59 -13 89.5 -63t21.5 -117q-13 -95 -86 -149.5t-169 -54.5q-167 0 -203 143l80 23q11 -51 43.5 -75.5
t95.5 -24.5q62 0 110.5 39.5t56.5 100.5q10 75 -35.5 109.5t-123.5 34.5h-31z" />
    <glyph glyph-name="four" unicode="4" 
d="M516 708l-67 -474h102l-9 -66h-102l-24 -168h-72l24 168h-306l11 82l351 458h92zM377 234l56 402h-2l-300 -402h246z" />
    <glyph glyph-name="five" unicode="5" 
d="M565 708l-10 -66h-290l-34 -213q45 17 98 17q99 0 152.5 -64.5t39.5 -162.5q-14 -102 -91 -166.5t-180 -64.5q-68 0 -117.5 32.5t-68.5 93.5l75 31q15 -42 48 -66.5t79 -24.5q67 0 119.5 46t62.5 112q10 75 -32.5 121.5t-118.5 46.5q-74 0 -152 -39l59 367h361z" />
    <glyph glyph-name="six" unicode="6" 
d="M485 708l-236 -304l2 -2q37 24 101 24q93 0 145.5 -62t39.5 -157q-13 -97 -87 -158t-174 -61t-156 61t-43 158q13 90 88 190l235 311h85zM149 207q-10 -67 28.5 -110t108.5 -43t119.5 42.5t59.5 110.5q10 67 -28 110t-108 43t-120 -42.5t-60 -110.5z" />
    <glyph glyph-name="seven" unicode="7" 
d="M574 708l-10 -66l-375 -642h-81l381 642h-345l10 66h420z" />
    <glyph glyph-name="eight" unicode="8" 
d="M239 375v2q-44 16 -67.5 60t-16.5 98q12 82 77 133.5t147 51.5t133 -51.5t39 -133.5q-7 -54 -43 -98t-85 -60v-2q57 -16 86.5 -66.5t19.5 -119.5q-13 -90 -87 -145.5t-166 -55.5q-93 0 -150.5 56t-44.5 145q10 69 53 119.5t105 66.5zM478 529q8 54 -23 89.5t-85 35.5
t-95 -35.5t-49 -89.5q-7 -54 24 -89.5t85 -35.5t95 35.5t48 89.5zM458 199q9 63 -27.5 104t-104.5 41t-115.5 -41t-56.5 -104t27.5 -104t104.5 -41t115.5 41t56.5 104z" />
    <glyph glyph-name="nine" unicode="9" 
d="M171 0l236 304l-2 2q-37 -24 -101 -24q-93 0 -146 62t-40 157q14 97 87.5 158t173.5 61t156.5 -61t42.5 -158q-13 -92 -87 -190l-235 -311h-85zM506 501q10 67 -28 110t-108 43t-120 -42.5t-60 -110.5q-9 -68 29 -110.5t108 -42.5t120 43t59 110z" />
    <glyph glyph-name="colon" unicode=":" horiz-adv-x="278" 
d="M252 419q-3 -22 -21 -38t-41 -16t-36 16t-10 38t20.5 38t40.5 16t36.5 -16t10.5 -38zM200 48q-3 -22 -21 -38t-41 -16t-36 16t-10 38t20.5 38t40.5 16t36.5 -16t10.5 -38z" />
    <glyph glyph-name="semicolon" unicode=";" horiz-adv-x="278" 
d="M226 95l-114 -235h-67l100 235h81zM261 419q-3 -22 -21 -38t-41 -16t-36 16t-10 38t20.5 38t40.5 16t36.5 -16t10.5 -38z" />
    <glyph glyph-name="less" unicode="&#x3c;" horiz-adv-x="666" 
d="M667 564l-8 -60l-457 -201l400 -201l-8 -60l-477 238l7 46z" />
    <glyph glyph-name="equal" unicode="=" horiz-adv-x="666" 
d="M135 408h510l-8 -60h-510zM114 258h510l-8 -60h-510z" />
    <glyph glyph-name="greater" unicode="&#x3e;" horiz-adv-x="666" 
d="M149 504l8 60l477 -238l-7 -46l-543 -238l8 60l458 201z" />
    <glyph glyph-name="question" unicode="?" horiz-adv-x="482" 
d="M310 243l-7 -51h-72l12 83q5 30 25.5 57.5t47 49.5t53.5 44t47.5 51t25.5 62q7 51 -21 83t-80 32q-50 0 -88 -30t-54 -79l-74 9q22 77 83.5 121.5t140.5 44.5q83 0 130 -46.5t36 -128.5q-7 -47 -28.5 -82t-48.5 -56.5t-53.5 -42t-47.5 -51t-27 -70.5zM307 48
q-3 -22 -21 -38t-41 -16t-36 16t-10 38t20.5 38t40.5 16t36.5 -16t10.5 -38z" />
    <glyph glyph-name="at" unicode="@" horiz-adv-x="800" 
d="M560 409q6 42 -14 71t-52 29q-70 -3 -129.5 -72t-69.5 -144q-6 -42 17 -69t64 -27q61 0 118 72t66 140zM606 487l31 63h56l-123 -282q-12 -25 -17 -51q-1 -8 5 -14t16 -6q53 0 111.5 68.5t69.5 149.5q16 109 -59.5 183t-184.5 74q-128 0 -234.5 -96t-123.5 -222
q-18 -126 61.5 -222t207.5 -96q75 0 148.5 32.5t121.5 88.5h63q-59 -82 -151 -128.5t-190 -46.5q-154 0 -248.5 108t-72.5 264t147 264t279 108q141 0 228 -87t69 -220q-17 -120 -105 -201t-165 -81q-31 0 -46.5 14.5t-14.5 44.5h-2q-66 -59 -134 -59q-64 0 -97 41.5
t-24 108.5q16 109 94.5 195.5t179.5 86.5q86 0 102 -82h2z" />
    <glyph glyph-name="A" unicode="A" horiz-adv-x="686" 
d="M188 186l-104 -186h-84l408 708h70l208 -708h-84l-52 186h-362zM431 624l-207 -372h307z" />
    <glyph glyph-name="B" unicode="B" horiz-adv-x="630" 
d="M96 0l100 708h211q99 0 157 -42.5t45 -135.5q-8 -58 -47 -100t-99 -55l-1 -2q74 -6 110 -53t26 -124q-3 -18 -10.5 -38.5t-28 -50t-50 -52t-81 -39t-116.5 -16.5h-216zM258 642l-34 -244h145q59 0 106 30.5t55 93.5q2 15 -0.5 31.5t-13.5 38.5t-42 36t-78 14h-138z
M216 338l-39 -272h138q83 0 139.5 33.5t65.5 100.5q10 69 -30 103.5t-127 34.5h-147z" />
    <glyph glyph-name="C" unicode="C" horiz-adv-x="704" 
d="M642 154l53 -42q-45 -57 -120.5 -93.5t-160.5 -36.5q-159 0 -248.5 105.5t-67.5 266.5t142 266.5t279 105.5q70 0 131.5 -28t97.5 -84l-69 -47q-17 36 -66 64.5t-103 28.5q-132 0 -224 -89.5t-110 -216.5t49 -216.5t199 -89.5q134 0 218 106z" />
    <glyph glyph-name="D" unicode="D" horiz-adv-x="741" 
d="M86 0l100 708h235q54 0 104.5 -14t94.5 -43t75 -70t44.5 -100t3.5 -127q-16 -112 -84.5 -195t-157 -121t-180.5 -38h-235zM248 642l-81 -576h140q153 0 247 84.5t111 203.5q8 56 -5 107t-45 92t-90.5 65t-136.5 24h-140z" />
    <glyph glyph-name="E" unicode="E" horiz-adv-x="593" 
d="M215 335l-38 -269h379l-9 -66h-451l100 708h439l-10 -66h-367l-34 -241h343l-9 -66h-343z" />
    <glyph glyph-name="F" unicode="F" 
d="M215 335l-47 -335h-72l100 708h427l-10 -66h-355l-34 -241h330l-9 -66h-330z" />
    <glyph glyph-name="G" unicode="G" horiz-adv-x="778" 
d="M762 631l-62 -53q-66 82 -190 82q-132 0 -224 -89.5t-110 -216.5t49 -216.5t199 -89.5q108 0 203 50l33 237h-169l9 66h241l-48 -347q-132 -72 -279 -72q-159 0 -248.5 105.5t-67.5 266.5t142 266.5t279 105.5q162 0 243 -95z" />
    <glyph glyph-name="H" unicode="H" horiz-adv-x="722" 
d="M96 0l100 708h72l-44 -307h386l44 307h72l-100 -708h-72l47 335h-386l-47 -335h-72z" />
    <glyph glyph-name="I" unicode="I" horiz-adv-x="264" 
d="M268 708l-100 -708h-72l100 708h72z" />
    <glyph glyph-name="J" unicode="J" horiz-adv-x="482" 
d="M32 130l75 15q8 -97 99 -97q125 0 149 176l69 484h72l-73 -514q-5 -38 -20.5 -73.5t-41.5 -67.5t-69.5 -51.5t-97.5 -19.5q-74 0 -117 38t-45 110z" />
    <glyph glyph-name="K" unicode="K" horiz-adv-x="630" 
d="M268 708l-44 -307h10l377 307h103l-403 -321l323 -387h-106l-297 365h-12l-51 -365h-72l100 708h72z" />
    <glyph glyph-name="L" unicode="L" horiz-adv-x="500" 
d="M268 708l-91 -642h330l-9 -66h-402l100 708h72z" />
    <glyph glyph-name="M" unicode="M" horiz-adv-x="890" 
d="M306 708l158 -576l320 576h110l-100 -708h-72l86 612h-2l-342 -612h-38l-170 612h-2l-86 -612h-72l100 708h110z" />
    <glyph glyph-name="N" unicode="N" horiz-adv-x="778" 
d="M286 708l337 -600h2l85 600h72l-100 -708h-90l-337 606h-2l-85 -606h-72l100 708h90z" />
    <glyph glyph-name="O" unicode="O" horiz-adv-x="834" 
d="M836 354q-22 -161 -142.5 -266.5t-279.5 -105.5t-248.5 105.5t-67.5 266.5t142 266.5t279 105.5t249 -105.5t68 -266.5zM758 354q18 127 -49 216.5t-199 89.5t-224 -89.5t-110 -216.5t49 -216.5t199 -89.5t224 89.5t110 216.5z" />
    <glyph glyph-name="P" unicode="P" horiz-adv-x="574" 
d="M96 0l100 708h206q110 0 164.5 -48t41.5 -141q-13 -94 -81.5 -142t-178.5 -48h-134l-46 -329h-72zM258 642l-34 -247h116q172 0 190 124q8 56 -28.5 89.5t-127.5 33.5h-116z" />
    <glyph glyph-name="Q" unicode="Q" horiz-adv-x="834" 
d="M177 363q-17 -123 47 -210t191 -87q126 0 215 87t106 210t-47 210t-190 87q-127 0 -216 -87t-106 -210zM820 66l-9 -66h-405q-154 0 -241.5 103t-65.5 260t138.5 260t270.5 103t241 -103t65 -260q-29 -207 -207 -295l-1 -2h214z" />
    <glyph glyph-name="R" unicode="R" horiz-adv-x="593" 
d="M214 329l-46 -329h-72l100 708h218q110 0 164.5 -48t41.5 -141q-11 -75 -65.5 -125.5t-141.5 -57.5l157 -336h-88l-148 329h-120zM258 642l-34 -247h128q172 0 190 124q8 56 -28.5 89.5t-127.5 33.5h-128z" />
    <glyph glyph-name="S" unicode="S" 
d="M584 640l-70 -49q-36 69 -127 69q-62 0 -111.5 -33t-57.5 -95q-5 -39 11 -65.5t46 -42t66.5 -28t73.5 -27.5t66 -35.5t43.5 -57.5t7.5 -89q-13 -92 -92.5 -148.5t-169.5 -56.5q-146 0 -208 105l72 47q18 -40 56.5 -63t92.5 -23q58 0 110 35t60 94q6 40 -10.5 68t-46 43.5
t-66.5 27.5t-74 26.5t-66 35t-44 57.5t-7 90q9 65 49.5 112t94 68t113.5 21q125 0 188 -86z" />
    <glyph glyph-name="T" unicode="T" horiz-adv-x="574" 
d="M413 642l-90 -642h-72l90 642h-237l10 66h546l-10 -66h-237z" />
    <glyph glyph-name="U" unicode="U" horiz-adv-x="686" 
d="M702 708l-63 -444q-5 -39 -16.5 -75t-35 -75t-55 -67t-81.5 -46.5t-111 -18.5t-106 18t-67.5 47.5t-36.5 66.5t-13 75.5t4 74.5l63 444h72l-62 -436q-8 -58 0.5 -101.5t26 -66t43.5 -36t45.5 -17t40.5 -3.5t41.5 3.5t50.5 17t53.5 36t44 66t28.5 101.5l62 436h72z" />
    <glyph glyph-name="V" unicode="V" horiz-adv-x="611" 
d="M177 708l140 -600h2l317 600h78l-376 -708h-72l-169 708h80z" />
    <glyph glyph-name="W" unicode="W" horiz-adv-x="944" 
d="M180 708l84 -606h2l264 606h86l92 -606h2l254 606h80l-309 -708h-84l-93 606h-2l-263 -606h-84l-109 708h80z" />
    <glyph glyph-name="X" unicode="X" horiz-adv-x="630" 
d="M223 708l153 -283l238 283h90l-288 -336l208 -372h-95l-171 321l-262 -321h-90l311 372l-191 336h97z" />
    <glyph glyph-name="Y" unicode="Y" horiz-adv-x="574" 
d="M366 305l-43 -305h-72l43 305l-208 403h90l164 -334l258 334h90z" />
    <glyph glyph-name="Z" unicode="Z" 
d="M627 708l-9 -60l-495 -582h419l-9 -66h-510l8 60l496 582h-408l10 66h498z" />
    <glyph glyph-name="bracketleft" unicode="[" horiz-adv-x="260" 
d="M330 732l-8 -54h-96l-109 -780h96l-8 -54h-162l125 888h162z" />
    <glyph glyph-name="backslash" unicode="\" horiz-adv-x="370" 
d="M304 -18l-200 724l60 20l201 -725z" />
    <glyph glyph-name="bracketright" unicode="]" horiz-adv-x="260" 
d="M11 -156l8 54h96l109 780h-96l8 54h162l-125 -888h-162z" />
    <glyph glyph-name="asciicircum" unicode="^" horiz-adv-x="666" 
d="M119 275l290 433h48l168 -433h-62l-141 361l-241 -361h-62z" />
    <glyph glyph-name="underscore" unicode="_" horiz-adv-x="500" 
d="M-18 -125l7 50h500l-7 -50h-500z" />
    <glyph glyph-name="grave" unicode="`" horiz-adv-x="240" 
d="M201 564l-111 144h91l79 -144h-59z" />
    <glyph glyph-name="a" unicode="a" horiz-adv-x="519" 
d="M379 287h33l2 12q16 121 -103 121q-82 0 -151 -55l-33 47q76 68 207 68q74 0 116.5 -42.5t31.5 -123.5l-29 -209q-7 -50 -7 -105h-64q-2 35 5 76h-2q-67 -88 -178 -88q-67 0 -108.5 36t-32.5 101q6 43 30.5 75t55.5 48t75.5 25.5t77 11.5t74.5 2zM405 233h-34
q-218 0 -232 -99q-6 -43 23.5 -64.5t74.5 -21.5q69 0 111 42.5t52 108.5z" />
    <glyph glyph-name="b" unicode="b" horiz-adv-x="611" 
d="M72 0l106 756h66l-51 -366h2q37 44 90 67t104 23q109 0 169.5 -70t45.5 -176t-95 -176t-189 -70q-51 0 -98 23t-71 67h-2l-11 -78h-66zM532 234q11 80 -30 133t-121 53q-81 0 -141.5 -53.5t-71.5 -132.5t34.5 -132.5t126.5 -53.5q80 0 135.5 52.5t67.5 133.5z" />
    <glyph glyph-name="c" unicode="c" horiz-adv-x="482" 
d="M523 399l-60 -41q-13 27 -42 44.5t-66 17.5q-80 1 -135 -51.5t-67 -134.5t28.5 -134.5t121.5 -51.5q37 0 70.5 17.5t54.5 44.5l49 -41q-79 -79 -183 -81q-113 -1 -170.5 68.5t-42.5 177.5t92.5 177.5t189.5 68.5q104 -2 160 -81z" />
    <glyph glyph-name="d" unicode="d" horiz-adv-x="611" 
d="M645 756l-106 -756h-66l11 78h-2q-37 -44 -90.5 -67t-104.5 -23q-109 0 -169 70t-45 176t94.5 176t188.5 70q51 0 98.5 -23t71.5 -67h2l51 366h66zM145 234q-11 -80 30 -133t121 -53q81 0 141.5 53.5t71.5 132.5t-34.5 132.5t-126.5 53.5q-80 0 -135.5 -52.5
t-67.5 -133.5z" />
    <glyph glyph-name="e" unicode="e" 
d="M538 216h-390q-4 -71 38 -119.5t111 -48.5q49 0 92 23.5t69 57.5l45 -42q-92 -99 -215 -99q-104 0 -163 70t-44 176q15 105 92.5 175.5t177.5 70.5q103 -1 154.5 -68t37.5 -166zM158 270h316q9 68 -26 109t-105 41q-64 0 -120.5 -46t-64.5 -104z" />
    <glyph glyph-name="f" unicode="f" horiz-adv-x="296" 
d="M356 468l-9 -60h-111l-57 -408h-66l57 408h-99l9 60h99l18 128q24 172 181 172q24 0 56 -7l-20 -60q-28 7 -50 7q-51 0 -72.5 -31t-29.5 -89l-17 -120h111z" />
    <glyph glyph-name="g" unicode="g" horiz-adv-x="611" 
d="M38 -146l57 52q24 -40 68 -63t99 -23q94 0 145 50.5t63 133.5l11 84h-2q-70 -88 -187 -88q-102 0 -163.5 68t-47.5 170q15 103 92 172.5t180 69.5q115 0 169 -90h2l11 78h66l-65 -464q-6 -44 -22 -82t-47 -77t-86.5 -62t-130.5 -23q-137 0 -212 94zM154 240
q-11 -74 32 -127t116 -53q75 0 135 50.5t68 129.5q11 76 -30.5 128t-121.5 52q-73 0 -130.5 -53t-68.5 -127z" />
    <glyph glyph-name="h" unicode="h" 
d="M72 0l106 756h66l-51 -363h2q27 38 74.5 62.5t94.5 24.5q88 0 125.5 -47.5t25.5 -135.5l-42 -297h-66l36 259q12 82 -10.5 121.5t-93.5 39.5q-8 0 -20.5 -2t-37 -12.5t-45 -28t-39 -53.5t-25.5 -84l-34 -240h-66z" />
    <glyph glyph-name="i" unicode="i" horiz-adv-x="240" 
d="M219 468l-66 -468h-66l66 468h66zM259 648q-3 -20 -19.5 -34t-35.5 -14t-31.5 14t-9.5 34t19.5 34t35.5 14t31.5 -14t9.5 -34z" />
    <glyph glyph-name="j" unicode="j" horiz-adv-x="240" 
d="M-63 -230l17 57l3 -1q20 -6 34 -6q30 0 49 16.5t25 35t10 46.5l78 550h66l-79 -561q-10 -69 -39 -102q-39 -45 -114 -45q-27 0 -50 10zM259 648q-3 -20 -19.5 -34t-35.5 -14t-31.5 14t-9.5 34t19.5 34t35.5 14t31.5 -14t9.5 -34z" />
    <glyph glyph-name="k" unicode="k" horiz-adv-x="482" 
d="M244 756l-70 -499l251 211h99l-263 -214l222 -254h-102l-208 246l-35 -246h-66l106 756h66z" />
    <glyph glyph-name="l" unicode="l" horiz-adv-x="240" 
d="M259 756l-106 -756h-66l106 756h66z" />
    <glyph glyph-name="m" unicode="m" horiz-adv-x="852" 
d="M72 0l51 364q3 19 10 104h71l-10 -71h2q28 39 73 61t89 22q112 0 136 -97q26 44 72.5 70.5t94.5 26.5q88 0 125.5 -47.5t25.5 -135.5l-42 -297h-66l38 273q11 75 -10 111t-87 36q-68 0 -107 -49t-49 -122l-35 -249h-66l38 273q11 75 -10 111t-87 36q-9 0 -20.5 -2
t-34.5 -12.5t-41.5 -28t-36 -53.5t-24.5 -84l-34 -240h-66z" />
    <glyph glyph-name="n" unicode="n" 
d="M133 468h68q-1 -33 -8 -75h2q27 38 74.5 62.5t94.5 24.5q88 0 125.5 -47.5t25.5 -135.5l-42 -297h-66l36 259q12 82 -10.5 121.5t-93.5 39.5q-8 0 -20.5 -2t-37 -12.5t-45 -28t-39 -53.5t-25.5 -84l-34 -240h-66l51 365q2 13 10 103z" />
    <glyph glyph-name="o" unicode="o" horiz-adv-x="593" 
d="M578 234q-15 -106 -95 -176t-189 -70q-108 0 -168 70t-45 176t94.5 176t187.5 70q109 0 169.5 -70t45.5 -176zM506 234q11 80 -30 133t-121 53q-79 0 -135 -53t-67 -133t29.5 -133t120.5 -53t135.5 52.5t67.5 133.5z" />
    <glyph glyph-name="p" unicode="p" horiz-adv-x="611" 
d="M32 -288l106 756h66l-11 -78h2q37 44 90 67t104 23q109 0 169.5 -70t45.5 -176t-95 -176t-189 -70q-51 0 -98 23t-71 67h-2l-51 -366h-66zM532 234q11 80 -30 133t-121 53q-81 0 -141.5 -53.5t-71.5 -132.5t34.5 -132.5t126.5 -53.5q80 0 135.5 52.5t67.5 133.5z" />
    <glyph glyph-name="q" unicode="q" horiz-adv-x="611" 
d="M605 468l-106 -756h-66l51 366h-2q-37 -44 -90.5 -67t-104.5 -23q-109 0 -169 70t-45 176t94.5 176t188.5 70q51 0 98.5 -23t71.5 -67h2l11 78h66zM145 234q-11 -80 30 -133t121 -53q81 0 141.5 53.5t71.5 132.5t-34.5 132.5t-126.5 53.5q-80 0 -135.5 -52.5
t-67.5 -133.5z" />
    <glyph glyph-name="r" unicode="r" horiz-adv-x="332" 
d="M79 0l45 322q3 19 5 39t5.5 50.5t6.5 56.5h65l-12 -87h2q22 42 64 70.5t99 28.5q28 0 49 -6l-23 -65q-12 5 -37 5q-69 0 -113.5 -47.5t-52.5 -102.5l-37 -264h-66z" />
    <glyph glyph-name="s" unicode="s" horiz-adv-x="426" 
d="M435 396l-65 -39q-23 63 -92 63q-39 0 -70.5 -17.5t-36.5 -52.5q-4 -31 15 -47t67 -27l65 -16q48 -12 75.5 -46t20.5 -82q-11 -72 -69 -108t-134 -36q-119 0 -167 91l63 39q35 -70 113 -70q45 0 80 20t41 58q4 32 -16.5 48t-62.5 27l-62 15q-116 30 -102 123
q9 69 64.5 105t127.5 36q115 0 145 -84z" />
    <glyph glyph-name="t" unicode="t" horiz-adv-x="332" 
d="M380 468l-9 -60h-135l-38 -276q-7 -49 7.5 -66.5t48.5 -17.5q36 0 70 18l-5 -61q-40 -17 -92 -17q-47 0 -77.5 28t-20.5 97l41 295h-99l9 60h99l18 132h66l-18 -132h135z" />
    <glyph glyph-name="u" unicode="u" 
d="M478 0h-68q1 33 8 75h-2q-28 -38 -75.5 -62.5t-94.5 -24.5q-175 0 -150 183l42 297h66l-37 -259q-11 -82 11.5 -121.5t93.5 -39.5q8 0 20.5 2t37 12.5t45 28t39 53.5t25.5 84l34 240h66l-52 -365q-1 -11 -2.5 -28.5t-3.5 -40t-3 -34.5z" />
    <glyph glyph-name="v" unicode="v" horiz-adv-x="482" 
d="M534 468l-256 -468h-74l-124 468h79l93 -394h2l205 394h75z" />
    <glyph glyph-name="w" unicode="w" horiz-adv-x="722" 
d="M80 468h78l54 -380h2l179 380h68l71 -380h2l162 380h78l-214 -468h-74l-70 384h-2l-178 -384h-74z" />
    <glyph glyph-name="x" unicode="x" horiz-adv-x="482" 
d="M0 0l228 250l-139 218h90l105 -175l149 175h82l-194 -218l161 -250h-90l-128 205l-180 -205h-84z" />
    <glyph glyph-name="y" unicode="y" horiz-adv-x="482" 
d="M165 468l92 -387l198 387h80l-317 -590q-31 -59 -69 -88.5t-95 -29.5q-38 0 -60 7l16 64q19 -11 49 -11q33 0 56 20.5t46 63.5l46 90l-125 474h83z" />
    <glyph glyph-name="z" unicode="z" horiz-adv-x="426" 
d="M459 468l-7 -48l-325 -360h284l-8 -60h-380l7 48l324 360h-260l9 60h356z" />
    <glyph glyph-name="braceleft" unicode="{" horiz-adv-x="260" 
d="M48 258l9 60q36 0 66.5 30.5t37.5 80.5l25 178q19 125 126 125h64l-9 -60h-56q-23 0 -36.5 -14.5t-17.5 -29t-7 -39.5l-24 -172q-9 -63 -44 -93.5t-63 -34.5l-1 -2q28 -4 54 -34.5t17 -93.5l-24 -172q-8 -29 -1 -56t40 -27h56l-9 -60h-64q-48 0 -74 29.5t-16 95.5l25 178
q6 50 -16 80.5t-58 30.5z" />
    <glyph glyph-name="bar" unicode="|" horiz-adv-x="361" 
d="M202 833h58v-1110h-58v1110z" />
    <glyph glyph-name="braceright" unicode="}" horiz-adv-x="260" 
d="M293 318l-9 -60q-36 0 -67 -30.5t-37 -80.5l-25 -178q-19 -125 -126 -125h-64l9 60h56q23 0 36.5 14.5t17.5 29t7 39.5l24 172q9 63 44 93.5t63 34.5l1 2q-28 4 -54 34.5t-17 93.5l24 172q8 29 1 56t-40 27h-56l9 60h64q48 0 74 -29.5t16 -95.5l-25 -178
q-7 -50 15.5 -80.5t58.5 -30.5z" />
    <glyph glyph-name="asciitilde" unicode="~" horiz-adv-x="666" 
d="M587 368l36 -40q-23 -27 -41 -44t-48 -33t-60 -16q-33 0 -50 4.5t-50 24.5q-6 4 -22 14.5t-26 16t-24.5 11t-27.5 5.5q-51 0 -110 -73l-36 40q23 27 41 44t48 33t60 16q33 0 50 -4.5t50 -24.5q4 -2 28 -18t39.5 -22.5t32.5 -6.5q51 0 110 73z" />
    <glyph glyph-name="uni00A0" unicode="&#xa0;" horiz-adv-x="278" 
 />
    <glyph glyph-name="exclamdown" unicode="&#xa1;" horiz-adv-x="278" 
d="M71 -228l72 516h72l-72 -516h-72zM146 432q3 22 20.5 38t40.5 16t36.5 -16t10.5 -38t-21 -38t-41 -16t-36 16t-10 38z" />
    <glyph glyph-name="cent" unicode="&#xa2;" 
d="M295 51l52 366q-65 -11 -109.5 -61.5t-54.5 -121.5q-10 -72 20 -122t92 -61zM395 419l-52 -370q73 5 115 61l49 -41q-74 -75 -173 -80l-8 -61h-48l9 63q-95 10 -142.5 77.5t-33.5 165.5t80 165.5t164 77.5l9 63h48l-9 -61q97 -5 150 -80l-60 -41q-12 25 -38 42t-60 19z
" />
    <glyph glyph-name="sterling" unicode="&#xa3;" 
d="M482 395l-9 -60h-168l-39 -275h253l-8 -60h-427l8 60h102l39 275h-96l9 60h96l12 87q34 238 245 238q98 0 147 -60l-54 -51q-39 51 -104 51q-43 0 -75.5 -18.5t-49.5 -49t-25.5 -58t-12.5 -58.5l-11 -81h168z" />
    <glyph glyph-name="currency" unicode="&#xa4;" 
d="M604 559l-61 -53q45 -69 32 -152q-11 -84 -75 -152l46 -53l-50 -44l-46 53q-76 -53 -157 -53q-82 0 -143 53l-60 -53l-38 44l60 53q-44 70 -31 152q10 84 74 152l-45 53l50 44l45 -53q76 53 158 53q81 0 142 -53l61 53zM147 354q-11 -78 34 -133.5t121 -55.5
q75 0 135.5 55.5t71.5 133.5t-34 133.5t-120 55.5q-76 0 -136.5 -55.5t-71.5 -133.5z" />
    <glyph glyph-name="yen" unicode="&#xa5;" 
d="M110 223h163l11 77l-5 12h-156l7 54h124l-156 342h85l147 -340l243 340h85l-253 -342h123l-7 -54h-156l-9 -12l-11 -77h163l-7 -54h-163l-24 -169h-72l24 169h-163z" />
    <glyph glyph-name="brokenbar" unicode="&#xa6;" horiz-adv-x="360" 
d="M202 750h57v-389h-57v389zM202 194h57v-387h-57v387z" />
    <glyph glyph-name="section" unicode="&#xa7;" 
d="M541 626l-63 -30q-25 64 -99 64q-60 0 -88.5 -31t-32.5 -59q-5 -33 12.5 -53.5t55.5 -41.5l102 -56q90 -50 77 -139q-11 -84 -105 -131q34 -26 45.5 -54t5.5 -71q-11 -79 -71.5 -121t-139.5 -42q-69 0 -117.5 29t-63.5 86l70 32q9 -44 42 -65.5t78 -21.5q47 0 84.5 24.5
t45.5 77.5t-57 88l-128 67q-84 44 -72 130q13 89 123 134q-37 28 -50 51q-15 30 -10 69q10 74 66.5 116t130.5 42q64 0 106.5 -26.5t52.5 -67.5zM299 404l-18 -7q-78 -31 -86 -84q-3 -7 -0.5 -16t3 -14.5t6 -12.5t8 -11t10.5 -10l12 -9t13 -7.5t13 -7t12.5 -6.5t12.5 -6
l61 -32q30 12 56 36.5t30 52.5q5 39 -17 63.5t-63 44.5z" />
    <glyph glyph-name="dieresis" unicode="&#xa8;" horiz-adv-x="240" 
d="M64 647q3 20 19.5 35.5t38.5 15.5t34.5 -15.5t9.5 -35.5t-19.5 -35.5t-38.5 -15.5t-34.5 15.5t-9.5 35.5zM256 647q3 20 19.5 35.5t38.5 15.5t34.5 -15.5t9.5 -35.5t-19.5 -35.5t-38.5 -15.5t-34.5 15.5t-9.5 35.5z" />
    <glyph glyph-name="copyright" unicode="&#xa9;" horiz-adv-x="800" 
d="M585 282h57q-27 -72 -83.5 -114t-125.5 -42q-100 0 -152.5 64.5t-38.5 163.5q14 101 82.5 164t169.5 63q74 0 120.5 -39.5t46.5 -112.5h-56q-2 43 -34.5 70.5t-83.5 27.5q-74 0 -124.5 -48.5t-60.5 -122.5q-10 -71 28.5 -123.5t109.5 -52.5q51 0 90.5 29t54.5 73zM74 352
q23 159 148 266.5t280 107.5t250 -107t73 -263q-15 -105 -78 -191t-156 -134.5t-194 -48.5q-154 0 -249.5 107t-73.5 263zM134 352q-19 -133 60 -224.5t211 -91.5t236.5 92t123.5 228q19 134 -60 225t-211 91t-236.5 -92t-123.5 -228z" />
    <glyph glyph-name="ordfeminine" unicode="&#xaa;" horiz-adv-x="337" 
d="M196 424q-44 0 -72 21.5t-22 61.5q7 49 50.5 74.5t138.5 25.5h22l1 8q4 28 -10.5 42.5t-45.5 14.5q-50 0 -93 -30l-27 37q50 41 125 41q67 0 92.5 -28.5t21.5 -61.5l-20 -137q-1 -4 -4 -63h-54l2 36h-1q-34 -42 -104 -42zM307 559h-13q-124 0 -131 -49q-3 -18 13 -28
t40 -10q79 0 91 87z" />
    <glyph glyph-name="guillemotleft" unicode="&#xab;" horiz-adv-x="482" 
d="M297 416l-139 -176l90 -176l-52 -33l-110 209l169 209zM479 416l-139 -176l90 -176l-52 -33l-110 209l169 209z" />
    <glyph glyph-name="logicalnot" unicode="&#xac;" horiz-adv-x="666" 
d="M645 408l-39 -278h-60l31 218h-450l8 60h510z" />
    <glyph glyph-name="uni00AD" unicode="&#xad;" horiz-adv-x="333" 
d="M333 273l-9 -66h-257l9 66h257z" />
    <glyph glyph-name="registered" unicode="&#xae;" horiz-adv-x="800" 
d="M280 136l61 431h158q78 0 110.5 -30t23.5 -94q-15 -105 -130 -117l97 -190h-65l-92 185h-77l-26 -185h-60zM393 513l-19 -138h74q28 0 44.5 1.5t36 8t30.5 22t15 39.5q5 40 -19.5 53.5t-68.5 13.5h-93zM74 352q23 159 148 266.5t280 107.5t250 -107t73 -263
q-15 -105 -78 -191t-156 -134.5t-194 -48.5q-154 0 -249.5 107t-73.5 263zM134 352q-19 -133 60 -224.5t211 -91.5t236.5 92t123.5 228q19 134 -60 225t-211 91t-236.5 -92t-123.5 -228z" />
    <glyph glyph-name="macron" unicode="&#xaf;" horiz-adv-x="240" 
d="M347 654l-8 -54h-270l8 54h270z" />
    <glyph glyph-name="degree" unicode="&#xb0;" horiz-adv-x="400" 
d="M429 571q-9 -64 -57 -106.5t-113 -42.5q-64 0 -100.5 42t-27.5 107q9 64 57 106.5t113 42.5q64 0 100.5 -42t27.5 -107zM381 571q6 42 -19.5 71.5t-67.5 29.5t-75.5 -29.5t-39.5 -71.5t19.5 -71.5t67.5 -29.5t75.5 29.5t39.5 71.5z" />
    <glyph glyph-name="plusminus" unicode="&#xb1;" horiz-adv-x="666" 
d="M127 347l8 60h225l22 156h60l-22 -156h225l-8 -60h-225l-21 -151h-60l21 151h-225zM85 48l8 60h510l-8 -60h-510z" />
    <glyph glyph-name="twosuperior" unicode="&#xb2;" horiz-adv-x="361" 
d="M375 343l-7 -54h-293l8 57l194 164q21 18 32 28.5t24 30t15 37.5q4 24 -17.5 42t-49.5 18q-32 0 -58.5 -16t-37.5 -40l-55 9q16 48 58.5 74.5t96.5 26.5q59 0 95 -29t29 -81q-4 -30 -24 -59.5t-37.5 -46t-52.5 -44.5l-147 -117h227z" />
    <glyph glyph-name="threesuperior" unicode="&#xb3;" horiz-adv-x="361" 
d="M198 483l7 54h24q43 0 74.5 17.5t35.5 49.5q4 27 -14 44.5t-49 17.5q-29 0 -49.5 -10t-43.5 -36l-42 33q55 67 141 67q56 0 90.5 -29.5t27.5 -80.5q-5 -34 -32 -61t-64 -38v-2q43 -7 64 -35.5t16 -68.5q-8 -57 -54.5 -89.5t-109.5 -32.5q-110 0 -134 86l56 30
q8 -31 28.5 -46.5t60.5 -15.5q30 0 59.5 22t33.5 47q4 30 -16.5 53.5t-80.5 23.5h-29z" />
    <glyph glyph-name="acute" unicode="&#xb4;" horiz-adv-x="240" 
d="M350 708l-153 -144h-59l121 144h91z" />
    <glyph glyph-name="mu" unicode="&#xb5;" 
d="M40 -228l98 696h66l-37 -259q-12 -88 11 -124.5t94 -36.5q62 0 108.5 48t58.5 132l34 240h66l-52 -365q-2 -15 -3.5 -32.5t-3 -38t-2.5 -32.5h-71l11 76h-2q-28 -36 -76.5 -62t-93.5 -26q-68 0 -106 29l-34 -245h-66z" />
    <glyph glyph-name="paragraph" unicode="&#xb6;" horiz-adv-x="600" 
d="M613 708l-118 -834h-66l110 780h-124l-110 -780h-66l62 442q-91 0 -142 53.5t-40 132.5q13 97 82 151.5t175 54.5h237z" />
    <glyph glyph-name="periodcentered" unicode="&#xb7;" horiz-adv-x="278" 
d="M237 314q-3 -22 -20.5 -38t-40.5 -16t-36.5 16t-10.5 38t21 38t41 16t36 -16t10 -38z" />
    <glyph glyph-name="cedilla" unicode="&#xb8;" horiz-adv-x="240" 
d="M156 0l-53 -60l1 -1q21 7 37 7q32 0 52 -20.5t15 -54.5q-6 -43 -43.5 -65.5t-83.5 -22.5q-52 0 -94 24l21 36q32 -18 71 -18q25 0 45.5 11t23.5 34q1 8 -1.5 16t-13 16t-29.5 8q-21 0 -47 -11l-16 17l74 84h41z" />
    <glyph glyph-name="onesuperior" unicode="&#xb9;" horiz-adv-x="361" 
d="M325 714l-59 -425h-60l51 365l-91 -67l-24 38l129 89h54z" />
    <glyph glyph-name="ordmasculine" unicode="&#xba;" horiz-adv-x="385" 
d="M434 571q-9 -63 -60 -105t-122 -42q-70 0 -110 42t-31 105q9 65 60.5 107t121.5 42q71 0 110.5 -42t30.5 -107zM374 571q6 42 -19 71.5t-69 29.5q-43 0 -76 -29.5t-39 -71.5q-5 -41 19.5 -70t67.5 -29q44 0 77.5 29t38.5 70z" />
    <glyph glyph-name="guillemotright" unicode="&#xbb;" horiz-adv-x="482" 
d="M252 64l140 176l-91 176l52 33l111 -209l-170 -209zM70 64l140 176l-91 176l52 33l111 -209l-170 -209z" />
    <glyph glyph-name="onequarter" unicode="&#xbc;" horiz-adv-x="834" 
d="M770 425l-39 -277h60l-8 -54h-60l-13 -94h-60l13 94h-192l9 62l217 269h73zM201 -32l-48 32l555 740l47 -31zM671 148l30 217h-2l-166 -217h138zM335 714l-59 -425h-60l51 365l-91 -67l-24 38l129 89h54z" />
    <glyph glyph-name="onehalf" unicode="&#xbd;" horiz-adv-x="834" 
d="M176 -32l-48 32l555 740l47 -31zM310 714l-59 -425h-60l51 365l-91 -67l-24 38l129 89h54zM803 54l-8 -54h-293l8 57l194 164q66 55 72 96q3 24 -18.5 42t-49.5 18q-32 0 -58.5 -16t-37.5 -40l-55 9q17 48 59.5 74.5t96.5 26.5q59 0 94.5 -29t28.5 -81q-4 -30 -24 -59.5
t-37.5 -46t-52.5 -44.5l-146 -117h227z" />
    <glyph glyph-name="threequarters" unicode="&#xbe;" horiz-adv-x="834" 
d="M790 425l-39 -277h60l-8 -54h-60l-13 -94h-60l13 94h-192l9 62l217 269h73zM241 -32l-48 32l555 740l47 -31zM691 148l30 217h-2l-166 -217h138zM207 483l7 54h24q44 0 75 18t35 53q4 24 -14 41t-49 17q-29 0 -49.5 -10t-43.5 -36l-42 33q55 67 141 67q56 0 90.5 -29.5
t27.5 -80.5q-5 -34 -32 -61t-64 -38v-2q43 -7 64 -35.5t16 -68.5q-8 -57 -54.5 -89.5t-109.5 -32.5q-110 0 -133 86l55 30q15 -62 89 -62q30 0 59.5 22t33.5 47q4 30 -16.5 53.5t-80.5 23.5h-29z" />
    <glyph glyph-name="questiondown" unicode="&#xbf;" horiz-adv-x="482" 
d="M239 237l7 51h72l-11 -83q-5 -30 -26 -57.5t-47.5 -49.5t-53.5 -44t-47.5 -51t-24.5 -62q-7 -51 21 -83t80 -32q50 0 88 30t54 79l74 -9q-22 -77 -84 -121.5t-141 -44.5q-83 0 -130 46.5t-35 128.5q6 40 22 71.5t37 50t44.5 38.5t44 36.5t36 44t20.5 61.5zM243 432
q3 22 20.5 38t40.5 16t36.5 -16t10.5 -38t-21 -38t-41 -16t-36 16t-10 38z" />
    <glyph glyph-name="Agrave" unicode="&#xc0;" horiz-adv-x="686" 
d="M188 186l-104 -186h-84l408 708h70l208 -708h-84l-52 186h-362zM431 624l-207 -372h307zM449 739l-112 144h91l80 -144h-59z" />
    <glyph glyph-name="Aacute" unicode="&#xc1;" horiz-adv-x="686" 
d="M188 186l-104 -186h-84l408 708h70l208 -708h-84l-52 186h-362zM431 624l-207 -372h307zM597 883l-152 -144h-59l120 144h91z" />
    <glyph glyph-name="Acircumflex" unicode="&#xc2;" horiz-adv-x="686" 
d="M188 186l-104 -186h-84l408 708h70l208 -708h-84l-52 186h-362zM431 624l-207 -372h307zM507 883l89 -144h-66l-68 108l-98 -108h-66l129 144h80z" />
    <glyph glyph-name="Atilde" unicode="&#xc3;" horiz-adv-x="686" 
d="M188 186l-104 -186h-84l408 708h70l208 -708h-84l-52 186h-362zM431 624l-207 -372h307zM330 751h-43q32 104 106 104q28 0 70 -23q46 -23 64 -23q36 0 56 50h43q-34 -104 -107 -104q-22 0 -70 23q-40 23 -63 23q-38 0 -56 -50z" />
    <glyph glyph-name="Adieresis" unicode="&#xc4;" horiz-adv-x="686" 
d="M188 186l-104 -186h-84l408 708h70l208 -708h-84l-52 186h-362zM431 624l-207 -372h307zM312 822q2 20 19 35.5t39 15.5t34 -15.5t10 -35.5q-3 -20 -20 -35.5t-39 -15.5t-34 15.5t-9 35.5zM504 822q2 20 19 35.5t39 15.5t34 -15.5t10 -35.5q-3 -20 -20 -35.5t-39 -15.5
t-34 15.5t-9 35.5z" />
    <glyph glyph-name="Aring" unicode="&#xc5;" horiz-adv-x="686" 
d="M188 186l-104 -186h-84l408 708h70l208 -708h-84l-52 186h-362zM431 624l-207 -372h307zM555 825q-6 -40 -38 -67.5t-71 -27.5q-40 0 -64.5 27.5t-18.5 67.5t38 67.5t71 27.5q40 0 64.5 -27.5t18.5 -67.5zM519 825q4 25 -11.5 42t-40.5 17t-44.5 -17t-23.5 -42t11.5 -42
t40.5 -17t44.5 17t23.5 42z" />
    <glyph glyph-name="AE" unicode="&#xc6;" horiz-adv-x="944" 
d="M673 642l-34 -241h276l-9 -66h-276l-38 -269h306l-9 -66h-378l28 198h-298l-156 -198h-85l561 708h416l-10 -66h-294zM292 264h256l53 378h-11z" />
    <glyph glyph-name="Ccedilla" unicode="&#xc7;" horiz-adv-x="704" 
d="M642 154l53 -42q-45 -57 -120.5 -93.5t-160.5 -36.5q-14 0 -20 2l-39 -44l1 -1q21 7 37 7q32 0 52 -20.5t15 -54.5q-6 -43 -43.5 -65.5t-83.5 -22.5q-52 0 -94 24l21 36q32 -18 71 -18q25 0 45.5 11t23.5 34q1 8 -1.5 16t-13 16t-29.5 8q-21 0 -47 -11l-16 17l62 71
q-134 20 -206 121.5t-51 245.5q22 161 142 266.5t279 105.5q70 0 131.5 -28t97.5 -84l-69 -47q-17 36 -66 64.5t-103 28.5q-132 0 -224 -89.5t-110 -216.5t49 -216.5t199 -89.5q134 0 218 106z" />
    <glyph glyph-name="Egrave" unicode="&#xc8;" horiz-adv-x="593" 
d="M215 335l-38 -269h379l-9 -66h-451l100 708h439l-10 -66h-367l-34 -241h343l-9 -66h-343zM403 739l-112 144h91l80 -144h-59z" />
    <glyph glyph-name="Eacute" unicode="&#xc9;" horiz-adv-x="593" 
d="M215 335l-38 -269h379l-9 -66h-451l100 708h439l-10 -66h-367l-34 -241h343l-9 -66h-343zM551 883l-152 -144h-59l120 144h91z" />
    <glyph glyph-name="Ecircumflex" unicode="&#xca;" horiz-adv-x="593" 
d="M215 335l-38 -269h379l-9 -66h-451l100 708h439l-10 -66h-367l-34 -241h343l-9 -66h-343zM461 883l89 -144h-66l-68 108l-98 -108h-66l129 144h80z" />
    <glyph glyph-name="Edieresis" unicode="&#xcb;" horiz-adv-x="593" 
d="M215 335l-38 -269h379l-9 -66h-451l100 708h439l-10 -66h-367l-34 -241h343l-9 -66h-343zM266 822q2 20 19 35.5t39 15.5t34 -15.5t10 -35.5q-3 -20 -20 -35.5t-39 -15.5t-34 15.5t-9 35.5zM458 822q2 20 19 35.5t39 15.5t34 -15.5t10 -35.5q-3 -20 -20 -35.5t-39 -15.5
t-34 15.5t-9 35.5z" />
    <glyph glyph-name="Igrave" unicode="&#xcc;" horiz-adv-x="264" 
d="M268 708l-100 -708h-72l100 708h72zM238 739l-112 144h91l80 -144h-59z" />
    <glyph glyph-name="Iacute" unicode="&#xcd;" horiz-adv-x="264" 
d="M268 708l-100 -708h-72l100 708h72zM386 883l-152 -144h-59l120 144h91z" />
    <glyph glyph-name="Icircumflex" unicode="&#xce;" horiz-adv-x="264" 
d="M268 708l-100 -708h-72l100 708h72zM296 883l89 -144h-66l-68 108l-98 -108h-66l129 144h80z" />
    <glyph glyph-name="Idieresis" unicode="&#xcf;" horiz-adv-x="264" 
d="M268 708l-100 -708h-72l100 708h72zM101 822q2 20 19 35.5t39 15.5t34 -15.5t10 -35.5q-3 -20 -20 -35.5t-39 -15.5t-34 15.5t-9 35.5zM293 822q2 20 19 35.5t39 15.5t34 -15.5t10 -35.5q-3 -20 -20 -35.5t-39 -15.5t-34 15.5t-9 35.5z" />
    <glyph glyph-name="Eth" unicode="&#xd0;" horiz-adv-x="741" 
d="M86 0l49 347h-73l7 54h73l44 307h235q54 0 104.5 -14t94.5 -43t75 -70t44.5 -100t3.5 -127q-16 -112 -84.5 -195t-157 -121t-180.5 -38h-235zM207 347l-40 -281h140q153 0 247 84.5t111 203.5q8 56 -5 107t-45 92t-90.5 65t-136.5 24h-140l-34 -241h258l-7 -54h-258z" />
    <glyph glyph-name="Ntilde" unicode="&#xd1;" horiz-adv-x="778" 
d="M286 708l337 -600h2l85 600h72l-100 -708h-90l-337 606h-2l-85 -606h-72l100 708h90zM376 751h-43q32 104 106 104q28 0 70 -23q46 -23 64 -23q36 0 56 50h43q-34 -104 -107 -104q-22 0 -70 23q-40 23 -63 23q-38 0 -56 -50z" />
    <glyph glyph-name="Ograve" unicode="&#xd2;" horiz-adv-x="834" 
d="M836 354q-22 -161 -142.5 -266.5t-279.5 -105.5t-248.5 105.5t-67.5 266.5t142 266.5t279 105.5t249 -105.5t68 -266.5zM758 354q18 127 -49 216.5t-199 89.5t-224 -89.5t-110 -216.5t49 -216.5t199 -89.5t224 89.5t110 216.5zM523 739l-112 144h91l80 -144h-59z" />
    <glyph glyph-name="Oacute" unicode="&#xd3;" horiz-adv-x="834" 
d="M836 354q-22 -161 -142.5 -266.5t-279.5 -105.5t-248.5 105.5t-67.5 266.5t142 266.5t279 105.5t249 -105.5t68 -266.5zM758 354q18 127 -49 216.5t-199 89.5t-224 -89.5t-110 -216.5t49 -216.5t199 -89.5t224 89.5t110 216.5zM671 883l-152 -144h-59l120 144h91z" />
    <glyph glyph-name="Ocircumflex" unicode="&#xd4;" horiz-adv-x="834" 
d="M836 354q-22 -161 -142.5 -266.5t-279.5 -105.5t-248.5 105.5t-67.5 266.5t142 266.5t279 105.5t249 -105.5t68 -266.5zM758 354q18 127 -49 216.5t-199 89.5t-224 -89.5t-110 -216.5t49 -216.5t199 -89.5t224 89.5t110 216.5zM581 883l89 -144h-66l-68 108l-98 -108h-66
l129 144h80z" />
    <glyph glyph-name="Otilde" unicode="&#xd5;" horiz-adv-x="834" 
d="M836 354q-22 -161 -142.5 -266.5t-279.5 -105.5t-248.5 105.5t-67.5 266.5t142 266.5t279 105.5t249 -105.5t68 -266.5zM758 354q18 127 -49 216.5t-199 89.5t-224 -89.5t-110 -216.5t49 -216.5t199 -89.5t224 89.5t110 216.5zM404 751h-43q32 104 106 104q28 0 70 -23
q46 -23 64 -23q36 0 56 50h43q-34 -104 -107 -104q-22 0 -70 23q-40 23 -63 23q-38 0 -56 -50z" />
    <glyph glyph-name="Odieresis" unicode="&#xd6;" horiz-adv-x="834" 
d="M836 354q-22 -161 -142.5 -266.5t-279.5 -105.5t-248.5 105.5t-67.5 266.5t142 266.5t279 105.5t249 -105.5t68 -266.5zM758 354q18 127 -49 216.5t-199 89.5t-224 -89.5t-110 -216.5t49 -216.5t199 -89.5t224 89.5t110 216.5zM386 822q2 20 19 35.5t39 15.5t34 -15.5
t10 -35.5q-3 -20 -20 -35.5t-39 -15.5t-34 15.5t-9 35.5zM578 822q2 20 19 35.5t39 15.5t34 -15.5t10 -35.5q-3 -20 -20 -35.5t-39 -15.5t-34 15.5t-9 35.5z" />
    <glyph glyph-name="multiply" unicode="&#xd7;" horiz-adv-x="666" 
d="M245 505l137 -159l180 159l37 -42l-181 -160l136 -159l-49 -43l-135 159l-182 -159l-36 43l182 159l-137 160z" />
    <glyph glyph-name="Oslash" unicode="&#xd8;" horiz-adv-x="834" 
d="M863 692l-87 -82q81 -102 60 -256q-22 -161 -142.5 -266.5t-279.5 -105.5q-137 0 -224 81l-88 -81l-32 34l88 82q-82 103 -60 256q22 161 142 266.5t279 105.5q136 0 225 -81l87 81zM718 556l-473 -441q67 -67 179 -67q132 0 224 89.5t110 216.5q16 117 -40 202zM215 152
l473 441q-67 67 -178 67q-132 0 -224 -89.5t-110 -216.5q-17 -118 39 -202z" />
    <glyph glyph-name="Ugrave" unicode="&#xd9;" horiz-adv-x="686" 
d="M702 708l-63 -444q-5 -39 -16.5 -75t-35 -75t-55 -67t-81.5 -46.5t-111 -18.5t-106 18t-67.5 47.5t-36.5 66.5t-13 75.5t4 74.5l63 444h72l-62 -436q-8 -58 0.5 -101.5t26 -66t43.5 -36t45.5 -17t40.5 -3.5t41.5 3.5t50.5 17t53.5 36t44 66t28.5 101.5l62 436h72z
M449 739l-112 144h91l80 -144h-59z" />
    <glyph glyph-name="Uacute" unicode="&#xda;" horiz-adv-x="686" 
d="M702 708l-63 -444q-5 -39 -16.5 -75t-35 -75t-55 -67t-81.5 -46.5t-111 -18.5t-106 18t-67.5 47.5t-36.5 66.5t-13 75.5t4 74.5l63 444h72l-62 -436q-8 -58 0.5 -101.5t26 -66t43.5 -36t45.5 -17t40.5 -3.5t41.5 3.5t50.5 17t53.5 36t44 66t28.5 101.5l62 436h72z
M597 883l-152 -144h-59l120 144h91z" />
    <glyph glyph-name="Ucircumflex" unicode="&#xdb;" horiz-adv-x="686" 
d="M702 708l-63 -444q-5 -39 -16.5 -75t-35 -75t-55 -67t-81.5 -46.5t-111 -18.5t-106 18t-67.5 47.5t-36.5 66.5t-13 75.5t4 74.5l63 444h72l-62 -436q-8 -58 0.5 -101.5t26 -66t43.5 -36t45.5 -17t40.5 -3.5t41.5 3.5t50.5 17t53.5 36t44 66t28.5 101.5l62 436h72z
M507 883l89 -144h-66l-68 108l-98 -108h-66l129 144h80z" />
    <glyph glyph-name="Udieresis" unicode="&#xdc;" horiz-adv-x="686" 
d="M702 708l-63 -444q-5 -39 -16.5 -75t-35 -75t-55 -67t-81.5 -46.5t-111 -18.5t-106 18t-67.5 47.5t-36.5 66.5t-13 75.5t4 74.5l63 444h72l-62 -436q-8 -58 0.5 -101.5t26 -66t43.5 -36t45.5 -17t40.5 -3.5t41.5 3.5t50.5 17t53.5 36t44 66t28.5 101.5l62 436h72z
M312 822q2 20 19 35.5t39 15.5t34 -15.5t10 -35.5q-3 -20 -20 -35.5t-39 -15.5t-34 15.5t-9 35.5zM504 822q2 20 19 35.5t39 15.5t34 -15.5t10 -35.5q-3 -20 -20 -35.5t-39 -15.5t-34 15.5t-9 35.5z" />
    <glyph glyph-name="Yacute" unicode="&#xdd;" horiz-adv-x="574" 
d="M366 305l-43 -305h-72l43 305l-208 403h90l164 -334l258 334h90zM541 883l-152 -144h-59l120 144h91z" />
    <glyph glyph-name="Thorn" unicode="&#xde;" horiz-adv-x="574" 
d="M96 0l100 708h72l-22 -156h160q92 0 142.5 -48.5t37.5 -140.5q-13 -93 -77 -141.5t-157 -48.5h-160l-24 -173h-72zM236 486l-34 -247h116q35 0 60.5 3.5t55.5 15t49 38t25 67.5q5 33 -3 56.5t-22.5 36t-38.5 20t-44.5 9t-47.5 1.5h-116z" />
    <glyph glyph-name="germandbls" unicode="&#xdf;" horiz-adv-x="593" 
d="M227 550l-77 -550h-66l76 544q14 99 72.5 161.5t170.5 62.5q83 0 130.5 -47.5t35.5 -129.5q-16 -117 -138 -159l-1 -2q83 -7 118.5 -65.5t23.5 -141.5q-15 -106 -89.5 -170.5t-180.5 -64.5q-32 0 -57 8l8 57q20 -5 48 -5q80 0 134 47t65 129q13 89 -33.5 132t-142.5 43
l9 60q66 0 110 29.5t53 93.5q8 58 -22 92t-83 34q-73 0 -114 -48t-50 -110z" />
    <glyph glyph-name="agrave" unicode="&#xe0;" horiz-adv-x="519" 
d="M379 287h33l2 12q16 121 -103 121q-82 0 -151 -55l-33 47q76 68 207 68q74 0 116.5 -42.5t31.5 -123.5l-29 -209q-7 -50 -7 -105h-64q-2 35 5 76h-2q-67 -88 -178 -88q-67 0 -108.5 36t-32.5 101q6 43 30.5 75t55.5 48t75.5 25.5t77 11.5t74.5 2zM405 233h-34
q-218 0 -232 -99q-6 -43 23.5 -64.5t74.5 -21.5q69 0 111 42.5t52 108.5zM341 564l-111 144h91l79 -144h-59z" />
    <glyph glyph-name="aacute" unicode="&#xe1;" horiz-adv-x="519" 
d="M379 287h33l2 12q16 121 -103 121q-82 0 -151 -55l-33 47q76 68 207 68q74 0 116.5 -42.5t31.5 -123.5l-29 -209q-7 -50 -7 -105h-64q-2 35 5 76h-2q-67 -88 -178 -88q-67 0 -108.5 36t-32.5 101q6 43 30.5 75t55.5 48t75.5 25.5t77 11.5t74.5 2zM405 233h-34
q-218 0 -232 -99q-6 -43 23.5 -64.5t74.5 -21.5q69 0 111 42.5t52 108.5zM490 708l-153 -144h-59l121 144h91z" />
    <glyph glyph-name="acircumflex" unicode="&#xe2;" horiz-adv-x="519" 
d="M379 287h33l2 12q16 121 -103 121q-82 0 -151 -55l-33 47q76 68 207 68q74 0 116.5 -42.5t31.5 -123.5l-29 -209q-7 -50 -7 -105h-64q-2 35 5 76h-2q-67 -88 -178 -88q-67 0 -108.5 36t-32.5 101q6 43 30.5 75t55.5 48t75.5 25.5t77 11.5t74.5 2zM405 233h-34
q-218 0 -232 -99q-6 -43 23.5 -64.5t74.5 -21.5q69 0 111 42.5t52 108.5zM400 708l88 -144h-66l-68 108l-98 -108h-66l130 144h80z" />
    <glyph glyph-name="atilde" unicode="&#xe3;" horiz-adv-x="519" 
d="M379 287h33l2 12q16 121 -103 121q-82 0 -151 -55l-33 47q76 68 207 68q74 0 116.5 -42.5t31.5 -123.5l-29 -209q-7 -50 -7 -105h-64q-2 35 5 76h-2q-67 -88 -178 -88q-67 0 -108.5 36t-32.5 101q6 43 30.5 75t55.5 48t75.5 25.5t77 11.5t74.5 2zM405 233h-34
q-218 0 -232 -99q-6 -43 23.5 -64.5t74.5 -21.5q69 0 111 42.5t52 108.5zM222 576h-43q32 104 107 104q27 0 69 -23q48 -23 64 -23q38 0 56 50h43q-32 -104 -106 -104q-24 0 -70 23q-42 23 -64 23q-38 0 -56 -50z" />
    <glyph glyph-name="adieresis" unicode="&#xe4;" horiz-adv-x="519" 
d="M379 287h33l2 12q16 121 -103 121q-82 0 -151 -55l-33 47q76 68 207 68q74 0 116.5 -42.5t31.5 -123.5l-29 -209q-7 -50 -7 -105h-64q-2 35 5 76h-2q-67 -88 -178 -88q-67 0 -108.5 36t-32.5 101q6 43 30.5 75t55.5 48t75.5 25.5t77 11.5t74.5 2zM405 233h-34
q-218 0 -232 -99q-6 -43 23.5 -64.5t74.5 -21.5q69 0 111 42.5t52 108.5zM204 647q3 20 19.5 35.5t38.5 15.5t34.5 -15.5t9.5 -35.5t-19.5 -35.5t-38.5 -15.5t-34.5 15.5t-9.5 35.5zM396 647q3 20 19.5 35.5t38.5 15.5t34.5 -15.5t9.5 -35.5t-19.5 -35.5t-38.5 -15.5
t-34.5 15.5t-9.5 35.5z" />
    <glyph glyph-name="aring" unicode="&#xe5;" horiz-adv-x="519" 
d="M379 287h33l2 12q16 121 -103 121q-82 0 -151 -55l-33 47q76 68 207 68q74 0 116.5 -42.5t31.5 -123.5l-29 -209q-7 -50 -7 -105h-64q-2 35 5 76h-2q-67 -88 -178 -88q-67 0 -108.5 36t-32.5 101q6 43 30.5 75t55.5 48t75.5 25.5t77 11.5t74.5 2zM405 233h-34
q-218 0 -232 -99q-6 -43 23.5 -64.5t74.5 -21.5q69 0 111 42.5t52 108.5zM447 650q-5 -40 -37 -67.5t-72 -27.5q-39 0 -63.5 27.5t-19.5 67.5q6 40 38.5 67.5t71.5 27.5t63.5 -27.5t18.5 -67.5zM411 650q4 25 -11 42t-40 17t-45 -17t-24 -42q-3 -25 12 -42t40 -17t45 17
t23 42z" />
    <glyph glyph-name="ae" unicode="&#xe6;" horiz-adv-x="852" 
d="M834 216h-351l-1 -9q-9 -66 22 -112.5t93 -46.5q55 0 90 20t66 56l47 -41q-88 -95 -210 -95q-56 0 -99.5 27.5t-59.5 81.5q-43 -58 -96 -83.5t-128 -25.5q-67 0 -108.5 36t-32.5 101q20 145 248 145h111l4 29q4 35 -6 60.5t-28.5 37.5t-35.5 17.5t-33 5.5q-83 0 -150 -56
l-34 48q83 68 195 68q53 0 92.5 -25.5t50.5 -64.5q28 41 78 65.5t101 24.5q100 -1 147 -66t33 -168zM417 216h-137q-51 0 -93 -19.5t-48 -62.5t23.5 -64.5t74.5 -21.5q71 0 120 44.5t59 114.5zM491 270h285q9 66 -24.5 108t-98.5 42q-60 0 -106.5 -43t-55.5 -107z" />
    <glyph glyph-name="ccedilla" unicode="&#xe7;" horiz-adv-x="482" 
d="M523 399l-60 -41q-13 27 -42 44.5t-66 17.5q-80 1 -135 -51.5t-67 -134.5t28.5 -134.5t121.5 -51.5q37 0 70.5 17.5t54.5 44.5l49 -41q-79 -79 -183 -81q-6 0 -7 1l-43 -49l1 -1q21 7 37 7q32 0 52 -20.5t15 -54.5q-6 -43 -43.5 -65.5t-83.5 -22.5q-52 0 -94 24l21 36
q31 -18 71 -18q25 0 45.5 11t23.5 34q1 8 -1.5 16t-13 16t-29.5 8q-21 0 -47 -11l-16 17l67 76q-92 13 -137 79.5t-31 162.5q15 108 92.5 177.5t189.5 68.5q104 -2 160 -81z" />
    <glyph glyph-name="egrave" unicode="&#xe8;" 
d="M538 216h-390q-4 -71 38 -119.5t111 -48.5q49 0 92 23.5t69 57.5l45 -42q-92 -99 -215 -99q-104 0 -163 70t-44 176q15 105 92.5 175.5t177.5 70.5q103 -1 154.5 -68t37.5 -166zM158 270h316q9 68 -26 109t-105 41q-64 0 -120.5 -46t-64.5 -104zM359 564l-111 144h91
l79 -144h-59z" />
    <glyph glyph-name="eacute" unicode="&#xe9;" 
d="M538 216h-390q-4 -71 38 -119.5t111 -48.5q49 0 92 23.5t69 57.5l45 -42q-92 -99 -215 -99q-104 0 -163 70t-44 176q15 105 92.5 175.5t177.5 70.5q103 -1 154.5 -68t37.5 -166zM158 270h316q9 68 -26 109t-105 41q-64 0 -120.5 -46t-64.5 -104zM508 708l-153 -144h-59
l121 144h91z" />
    <glyph glyph-name="ecircumflex" unicode="&#xea;" 
d="M538 216h-390q-4 -71 38 -119.5t111 -48.5q49 0 92 23.5t69 57.5l45 -42q-92 -99 -215 -99q-104 0 -163 70t-44 176q15 105 92.5 175.5t177.5 70.5q103 -1 154.5 -68t37.5 -166zM158 270h316q9 68 -26 109t-105 41q-64 0 -120.5 -46t-64.5 -104zM418 708l88 -144h-66
l-68 108l-98 -108h-66l130 144h80z" />
    <glyph glyph-name="edieresis" unicode="&#xeb;" 
d="M538 216h-390q-4 -71 38 -119.5t111 -48.5q49 0 92 23.5t69 57.5l45 -42q-92 -99 -215 -99q-104 0 -163 70t-44 176q15 105 92.5 175.5t177.5 70.5q103 -1 154.5 -68t37.5 -166zM158 270h316q9 68 -26 109t-105 41q-64 0 -120.5 -46t-64.5 -104zM222 647q3 20 19.5 35.5
t38.5 15.5t34.5 -15.5t9.5 -35.5t-19.5 -35.5t-38.5 -15.5t-34.5 15.5t-9.5 35.5zM414 647q3 20 19.5 35.5t38.5 15.5t34.5 -15.5t9.5 -35.5t-19.5 -35.5t-38.5 -15.5t-34.5 15.5t-9.5 35.5z" />
    <glyph glyph-name="igrave" unicode="&#xec;" horiz-adv-x="240" 
d="M219 468l-66 -468h-66l66 468h66zM201 564l-111 144h91l79 -144h-59z" />
    <glyph glyph-name="iacute" unicode="&#xed;" horiz-adv-x="240" 
d="M219 468l-66 -468h-66l66 468h66zM350 708l-153 -144h-59l121 144h91z" />
    <glyph glyph-name="icircumflex" unicode="&#xee;" horiz-adv-x="240" 
d="M219 468l-66 -468h-66l66 468h66zM260 708l88 -144h-66l-68 108l-98 -108h-66l130 144h80z" />
    <glyph glyph-name="idieresis" unicode="&#xef;" horiz-adv-x="240" 
d="M219 468l-66 -468h-66l66 468h66zM64 647q3 20 19.5 35.5t38.5 15.5t34.5 -15.5t9.5 -35.5t-19.5 -35.5t-38.5 -15.5t-34.5 15.5t-9.5 35.5zM256 647q3 20 19.5 35.5t38.5 15.5t34.5 -15.5t9.5 -35.5t-19.5 -35.5t-38.5 -15.5t-34.5 15.5t-9.5 35.5z" />
    <glyph glyph-name="eth" unicode="&#xf0;" horiz-adv-x="593" 
d="M153 234q-11 -80 29.5 -133t120.5 -53t135.5 52.5t67.5 133.5q11 80 -30 133t-121 53q-79 0 -135 -53t-67 -133zM555 714l-110 -54q83 -96 118 -194t18 -212q-7 -49 -26 -93t-51.5 -84.5t-86.5 -64.5t-123 -24q-108 0 -168 70t-45 176t94.5 176t187.5 70q81 0 142 -58
l3 2q-48 121 -131 204l-118 -57l-31 36l116 56q-43 47 -84 79l65 37q55 -50 86 -83l109 53z" />
    <glyph glyph-name="ntilde" unicode="&#xf1;" 
d="M133 468h68q-1 -33 -8 -75h2q27 38 74.5 62.5t94.5 24.5q88 0 125.5 -47.5t25.5 -135.5l-42 -297h-66l36 259q12 82 -10.5 121.5t-93.5 39.5q-8 0 -20.5 -2t-37 -12.5t-45 -28t-39 -53.5t-25.5 -84l-34 -240h-66l51 365q2 13 10 103zM240 576h-43q32 104 107 104
q27 0 69 -23q48 -23 64 -23q38 0 56 50h43q-32 -104 -106 -104q-24 0 -70 23q-42 23 -64 23q-38 0 -56 -50z" />
    <glyph glyph-name="ograve" unicode="&#xf2;" horiz-adv-x="593" 
d="M578 234q-15 -106 -95 -176t-189 -70q-108 0 -168 70t-45 176t94.5 176t187.5 70q109 0 169.5 -70t45.5 -176zM506 234q11 80 -30 133t-121 53q-79 0 -135 -53t-67 -133t29.5 -133t120.5 -53t135.5 52.5t67.5 133.5zM378 564l-111 144h91l79 -144h-59z" />
    <glyph glyph-name="oacute" unicode="&#xf3;" horiz-adv-x="593" 
d="M578 234q-15 -106 -95 -176t-189 -70q-108 0 -168 70t-45 176t94.5 176t187.5 70q109 0 169.5 -70t45.5 -176zM506 234q11 80 -30 133t-121 53q-79 0 -135 -53t-67 -133t29.5 -133t120.5 -53t135.5 52.5t67.5 133.5zM527 708l-153 -144h-59l121 144h91z" />
    <glyph glyph-name="ocircumflex" unicode="&#xf4;" horiz-adv-x="593" 
d="M578 234q-15 -106 -95 -176t-189 -70q-108 0 -168 70t-45 176t94.5 176t187.5 70q109 0 169.5 -70t45.5 -176zM506 234q11 80 -30 133t-121 53q-79 0 -135 -53t-67 -133t29.5 -133t120.5 -53t135.5 52.5t67.5 133.5zM437 708l88 -144h-66l-68 108l-98 -108h-66l130 144
h80z" />
    <glyph glyph-name="otilde" unicode="&#xf5;" horiz-adv-x="593" 
d="M578 234q-15 -106 -95 -176t-189 -70q-108 0 -168 70t-45 176t94.5 176t187.5 70q109 0 169.5 -70t45.5 -176zM506 234q11 80 -30 133t-121 53q-79 0 -135 -53t-67 -133t29.5 -133t120.5 -53t135.5 52.5t67.5 133.5zM259 576h-43q32 104 107 104q27 0 69 -23
q48 -23 64 -23q38 0 56 50h43q-32 -104 -106 -104q-24 0 -70 23q-42 23 -64 23q-38 0 -56 -50z" />
    <glyph glyph-name="odieresis" unicode="&#xf6;" horiz-adv-x="593" 
d="M578 234q-15 -106 -95 -176t-189 -70q-108 0 -168 70t-45 176t94.5 176t187.5 70q109 0 169.5 -70t45.5 -176zM506 234q11 80 -30 133t-121 53q-79 0 -135 -53t-67 -133t29.5 -133t120.5 -53t135.5 52.5t67.5 133.5zM241 647q3 20 19.5 35.5t38.5 15.5t34.5 -15.5
t9.5 -35.5t-19.5 -35.5t-38.5 -15.5t-34.5 15.5t-9.5 35.5zM433 647q3 20 19.5 35.5t38.5 15.5t34.5 -15.5t9.5 -35.5t-19.5 -35.5t-38.5 -15.5t-34.5 15.5t-9.5 35.5z" />
    <glyph glyph-name="divide" unicode="&#xf7;" horiz-adv-x="666" 
d="M635 333l-9 -60h-510l9 60h510zM452 465q-3 -22 -20.5 -38t-40.5 -16t-36.5 16t-10.5 38t21 38t41 16t36 -16t10 -38zM407 141q-3 -22 -21 -38t-41 -16t-36 16t-10 38t20.5 38t40.5 16t36.5 -16t10.5 -38z" />
    <glyph glyph-name="oslash" unicode="&#xf8;" horiz-adv-x="593" 
d="M488 348l-292 -262q41 -38 107 -38q80 0 135.5 52.5t67.5 133.5q9 63 -18 114zM171 120l292 261q-41 39 -108 39q-79 0 -135 -53t-67 -133q-9 -68 18 -114zM618 465l-75 -68q48 -66 35 -163q-15 -106 -95 -176t-189 -70q-92 0 -149 52l-77 -68l-28 31l76 68
q-48 67 -35 163q15 106 94.5 176t187.5 70q92 0 152 -52l76 68z" />
    <glyph glyph-name="ugrave" unicode="&#xf9;" 
d="M478 0h-68q1 33 8 75h-2q-28 -38 -75.5 -62.5t-94.5 -24.5q-175 0 -150 183l42 297h66l-37 -259q-11 -82 11.5 -121.5t93.5 -39.5q8 0 20.5 2t37 12.5t45 28t39 53.5t25.5 84l34 240h66l-52 -365q-1 -11 -2.5 -28.5t-3.5 -40t-3 -34.5zM359 564l-111 144h91l79 -144h-59z
" />
    <glyph glyph-name="uacute" unicode="&#xfa;" 
d="M478 0h-68q1 33 8 75h-2q-28 -38 -75.5 -62.5t-94.5 -24.5q-175 0 -150 183l42 297h66l-37 -259q-11 -82 11.5 -121.5t93.5 -39.5q8 0 20.5 2t37 12.5t45 28t39 53.5t25.5 84l34 240h66l-52 -365q-1 -11 -2.5 -28.5t-3.5 -40t-3 -34.5zM508 708l-153 -144h-59l121 144h91
z" />
    <glyph glyph-name="ucircumflex" unicode="&#xfb;" 
d="M478 0h-68q1 33 8 75h-2q-28 -38 -75.5 -62.5t-94.5 -24.5q-175 0 -150 183l42 297h66l-37 -259q-11 -82 11.5 -121.5t93.5 -39.5q8 0 20.5 2t37 12.5t45 28t39 53.5t25.5 84l34 240h66l-52 -365q-1 -11 -2.5 -28.5t-3.5 -40t-3 -34.5zM418 708l88 -144h-66l-68 108
l-98 -108h-66l130 144h80z" />
    <glyph glyph-name="udieresis" unicode="&#xfc;" 
d="M478 0h-68q1 33 8 75h-2q-28 -38 -75.5 -62.5t-94.5 -24.5q-175 0 -150 183l42 297h66l-37 -259q-11 -82 11.5 -121.5t93.5 -39.5q8 0 20.5 2t37 12.5t45 28t39 53.5t25.5 84l34 240h66l-52 -365q-1 -11 -2.5 -28.5t-3.5 -40t-3 -34.5zM222 647q3 20 19.5 35.5t38.5 15.5
t34.5 -15.5t9.5 -35.5t-19.5 -35.5t-38.5 -15.5t-34.5 15.5t-9.5 35.5zM414 647q3 20 19.5 35.5t38.5 15.5t34.5 -15.5t9.5 -35.5t-19.5 -35.5t-38.5 -15.5t-34.5 15.5t-9.5 35.5z" />
    <glyph glyph-name="yacute" unicode="&#xfd;" horiz-adv-x="482" 
d="M165 468l92 -387l198 387h80l-317 -590q-31 -59 -69 -88.5t-95 -29.5q-38 0 -60 7l16 64q19 -11 49 -11q33 0 56 20.5t46 63.5l46 90l-125 474h83zM471 708l-153 -144h-59l121 144h91z" />
    <glyph glyph-name="thorn" unicode="&#xfe;" horiz-adv-x="611" 
d="M40 -228l138 984h66l-52 -375h2q86 99 195 99t169.5 -70t45.5 -176t-95 -176t-189 -70q-51 0 -98 23t-71 67h-2l-43 -306h-66zM532 234q11 80 -30 133t-121 53q-81 0 -141.5 -53.5t-71.5 -132.5q-11 -80 33 -133t128 -53q80 0 135.5 52.5t67.5 133.5z" />
    <glyph glyph-name="ydieresis" unicode="&#xff;" horiz-adv-x="482" 
d="M165 468l92 -387l198 387h80l-317 -590q-31 -59 -69 -88.5t-95 -29.5q-38 0 -60 7l16 64q19 -11 49 -11q33 0 56 20.5t46 63.5l46 90l-125 474h83zM185 647q3 20 19.5 35.5t38.5 15.5t34.5 -15.5t9.5 -35.5t-19.5 -35.5t-38.5 -15.5t-34.5 15.5t-9.5 35.5zM377 647
q3 20 19.5 35.5t38.5 15.5t34.5 -15.5t9.5 -35.5t-19.5 -35.5t-38.5 -15.5t-34.5 15.5t-9.5 35.5z" />
    <glyph glyph-name="dotlessi" unicode="&#x131;" horiz-adv-x="240" 
d="M219 468l-66 -468h-66l66 468h66z" />
    <glyph glyph-name="Lslash" unicode="&#x141;" horiz-adv-x="500" 
d="M268 708l-49 -346l242 186l-10 -70l-242 -186l-32 -226h330l-9 -66h-402l32 230l-92 -70l10 70l92 70l58 408h72z" />
    <glyph glyph-name="lslash" unicode="&#x142;" horiz-adv-x="240" 
d="M259 756l-42 -298l93 84l-10 -73l-93 -83l-54 -386h-66l45 317l-93 -83l10 73l93 82l51 367h66z" />
    <glyph glyph-name="OE" unicode="&#x152;" horiz-adv-x="944" 
d="M682 642l-34 -241h282l-9 -66h-282l-38 -269h306l-9 -66h-447q-82 0 -146.5 22t-101.5 58.5t-62 83.5t-28.5 95.5t0.5 95.5q12 86 55 155t104.5 111.5t132.5 64.5t144 22h437l-10 -66h-294zM529 66l81 576h-57q-143 0 -243 -76t-120 -214q-1 -18 -2.5 -42t5.5 -51.5
t16 -54.5t30.5 -52t49.5 -44t71.5 -30.5t97.5 -11.5h71z" />
    <glyph glyph-name="oe" unicode="&#x153;" horiz-adv-x="922" 
d="M904 216h-351l-1 -9q-9 -66 22 -112.5t93 -46.5q55 0 90 20t66 56l47 -41q-88 -95 -210 -95q-59 0 -103 27t-64 79q-43 -53 -101.5 -79.5t-108.5 -26.5q-106 0 -161.5 69.5t-40.5 176.5q15 106 92.5 176t178.5 70q61 0 110.5 -26t73.5 -79q83 105 193 105q100 -1 147 -66
t33 -168zM484 234q11 79 -25.5 132.5t-114.5 53.5q-72 0 -126 -53t-65 -133q-11 -79 28 -132.5t111 -53.5q78 0 129.5 53.5t62.5 132.5zM561 270h285q9 66 -24.5 108t-98.5 42q-60 0 -106.5 -43t-55.5 -107z" />
    <glyph glyph-name="Scaron" unicode="&#x160;" 
d="M584 640l-70 -49q-36 69 -127 69q-62 0 -111.5 -33t-57.5 -95q-5 -39 11 -65.5t46 -42t66.5 -28t73.5 -27.5t66 -35.5t43.5 -57.5t7.5 -89q-13 -92 -92.5 -148.5t-169.5 -56.5q-146 0 -208 105l72 47q18 -40 56.5 -63t92.5 -23q58 0 110 35t60 94q6 40 -10.5 68t-46 43.5
t-66.5 27.5t-74 26.5t-66 35t-44 57.5t-7 90q9 65 49.5 112t94 68t113.5 21q125 0 188 -86zM551 883l-129 -144h-80l-89 144h66l68 -108l98 108h66z" />
    <glyph glyph-name="scaron" unicode="&#x161;" horiz-adv-x="426" 
d="M435 396l-65 -39q-23 63 -92 63q-39 0 -70.5 -17.5t-36.5 -52.5q-4 -31 15 -47t67 -27l65 -16q48 -12 75.5 -46t20.5 -82q-11 -72 -69 -108t-134 -36q-119 0 -167 91l63 39q35 -70 113 -70q45 0 80 20t41 58q4 32 -16.5 48t-62.5 27l-62 15q-116 30 -102 123
q9 69 64.5 105t127.5 36q115 0 145 -84zM462 708l-130 -144h-80l-88 144h66l67 -108l99 108h66z" />
    <glyph glyph-name="Ydieresis" unicode="&#x178;" horiz-adv-x="574" 
d="M366 305l-43 -305h-72l43 305l-208 403h90l164 -334l258 334h90zM256 822q2 20 19 35.5t39 15.5t34 -15.5t10 -35.5q-3 -20 -20 -35.5t-39 -15.5t-34 15.5t-9 35.5zM448 822q2 20 19 35.5t39 15.5t34 -15.5t10 -35.5q-3 -20 -20 -35.5t-39 -15.5t-34 15.5t-9 35.5z" />
    <glyph glyph-name="Zcaron" unicode="&#x17d;" 
d="M627 708l-9 -60l-495 -582h419l-9 -66h-510l8 60l496 582h-408l10 66h498zM551 883l-129 -144h-80l-89 144h66l68 -108l98 108h66z" />
    <glyph glyph-name="zcaron" unicode="&#x17e;" horiz-adv-x="426" 
d="M459 468l-7 -48l-325 -360h284l-8 -60h-380l7 48l324 360h-260l9 60h356zM462 708l-130 -144h-80l-88 144h66l67 -108l99 108h66z" />
    <glyph glyph-name="florin" unicode="&#x192;" 
d="M482 419l-8 -54h-119l-116 -352q-51 -152 -177 -152q-50 0 -78 24l39 48q19 -12 50 -12q42 0 64 28.5t37 77.5l110 338h-108l8 54h119l47 144q52 157 174 157q53 0 91 -29l-41 -48q-26 17 -54 17q-71 0 -107 -116l-39 -125h108z" />
    <glyph glyph-name="circumflex" unicode="&#x2c6;" horiz-adv-x="240" 
d="M260 708l88 -144h-66l-68 108l-98 -108h-66l130 144h80z" />
    <glyph glyph-name="caron" unicode="&#x2c7;" horiz-adv-x="240" 
d="M369 708l-130 -144h-80l-88 144h66l67 -108l99 108h66z" />
    <glyph glyph-name="uni02C9" unicode="&#x2c9;" horiz-adv-x="240" 
d="M347 654l-8 -54h-270l8 54h270z" />
    <glyph glyph-name="breve" unicode="&#x2d8;" horiz-adv-x="240" 
d="M323 708h44q-13 -61 -58.5 -96.5t-107.5 -35.5q-63 0 -98 35.5t-30 96.5h44q1 -37 27 -57.5t65 -20.5t70.5 20t43.5 58z" />
    <glyph glyph-name="dotaccent" unicode="&#x2d9;" horiz-adv-x="240" 
d="M161 657q3 20 20 35.5t39 15.5t34 -15.5t9 -35.5q-2 -20 -19 -35.5t-39 -15.5t-34 15.5t-10 35.5z" />
    <glyph glyph-name="ring" unicode="&#x2da;" horiz-adv-x="240" 
d="M307 650q-5 -40 -37 -67.5t-72 -27.5q-39 0 -63.5 27.5t-19.5 67.5q6 40 38.5 67.5t71.5 27.5t63.5 -27.5t18.5 -67.5zM271 650q4 25 -11 42t-40 17t-45 -17t-24 -42q-3 -25 12 -42t40 -17t45 17t23 42z" />
    <glyph glyph-name="ogonek" unicode="&#x2db;" horiz-adv-x="240" 
d="M171 -141l14 -40q-44 -36 -95 -36q-37 0 -60.5 24t-18.5 61q10 67 109 138h48q-47 -41 -69 -67.5t-25 -53.5q-3 -21 9.5 -34.5t33.5 -13.5q30 0 54 22z" />
    <glyph glyph-name="tilde" unicode="&#x2dc;" horiz-adv-x="240" 
d="M82 576h-43q32 104 107 104q27 0 69 -23q48 -23 64 -23q38 0 56 50h43q-32 -104 -106 -104q-24 0 -70 23q-42 23 -64 23q-38 0 -56 -50z" />
    <glyph glyph-name="hungarumlaut" unicode="&#x2dd;" horiz-adv-x="240" 
d="M216 708l-154 -144h-59l122 144h91zM416 708l-153 -144h-59l121 144h91z" />
    <glyph glyph-name="uni03A9" unicode="&#x3a9;" horiz-adv-x="722" 
d="M211 55v3q-53 53 -80 135.5t-13 183.5q21 149 120 244t227 95q129 0 196.5 -97.5t48.5 -236.5q-15 -105 -67.5 -190t-117.5 -134v-3h153l-8 -55h-236l6 41q72 44 128.5 129.5t72.5 199.5q10 70 -5 134.5t-62 110t-118 45.5q-104 0 -179.5 -84t-92.5 -208
q-16 -107 17.5 -196t91.5 -131l-6 -41h-236l8 55h152z" />
    <glyph glyph-name="uni03BC" unicode="&#x3bc;" 
d="M40 -228l98 696h66l-37 -259q-12 -88 11 -124.5t94 -36.5q62 0 108.5 48t58.5 132l34 240h66l-52 -365q-2 -15 -3.5 -32.5t-3 -38t-2.5 -32.5h-71l11 76h-2q-28 -36 -76.5 -62t-93.5 -26q-68 0 -106 29l-34 -245h-66z" />
    <glyph glyph-name="pi" unicode="&#x3c0;" horiz-adv-x="566" 
d="M604 466h-83l-44 -318q-13 -90 -6 -148h-64q-13 30 3 141l45 325h-189q-20 -110 -62 -254.5t-78 -211.5h-65q39 77 79.5 216.5t59.5 249.5q-79 0 -115 -13l-5 45q47 26 145 26h395z" />
    <glyph glyph-name="uni2010" unicode="&#x2010;" horiz-adv-x="333" 
d="M333 273l-9 -66h-257l9 66h257z" />
    <glyph glyph-name="endash" unicode="&#x2013;" horiz-adv-x="500" 
d="M538 273l-9 -66h-500l9 66h500z" />
    <glyph glyph-name="emdash" unicode="&#x2014;" horiz-adv-x="1000" 
d="M1038 273l-9 -66h-1000l9 66h1000z" />
    <glyph glyph-name="quoteleft" unicode="&#x2018;" horiz-adv-x="260" 
d="M122 473l115 235h67l-101 -235h-81z" />
    <glyph glyph-name="quoteright" unicode="&#x2019;" horiz-adv-x="260" 
d="M304 708l-115 -235h-67l101 235h81z" />
    <glyph glyph-name="quotesinglbase" unicode="&#x201a;" horiz-adv-x="260" 
d="M217 95l-114 -235h-67l100 235h81z" />
    <glyph glyph-name="quotedblleft" unicode="&#x201c;" horiz-adv-x="519" 
d="M161 473l115 235h67l-101 -235h-81zM342 473l115 235h67l-101 -235h-81z" />
    <glyph glyph-name="quotedblright" unicode="&#x201d;" horiz-adv-x="519" 
d="M524 708l-115 -235h-67l101 235h81zM343 708l-115 -235h-67l101 235h81z" />
    <glyph glyph-name="quotedblbase" unicode="&#x201e;" horiz-adv-x="519" 
d="M437 95l-114 -235h-67l100 235h81zM256 95l-114 -235h-67l100 235h81z" />
    <glyph glyph-name="dagger" unicode="&#x2020;" 
d="M411 708l-29 -204h204l-9 -60h-204l-80 -570h-66l80 570h-204l9 60h204l29 204h66z" />
    <glyph glyph-name="daggerdbl" unicode="&#x2021;" 
d="M411 708l-27 -192h195l-9 -60h-195l-46 -330h195l-9 -60h-195l-27 -192h-66l27 192h-195l9 60h195l46 330h-195l9 60h195l27 192h66z" />
    <glyph glyph-name="bullet" unicode="&#x2022;" horiz-adv-x="500" 
d="M123 354q11 74 70 125.5t132 51.5q74 0 118 -52t34 -125q-11 -74 -70 -125.5t-132 -51.5q-74 0 -118 52t-34 125z" />
    <glyph glyph-name="ellipsis" unicode="&#x2026;" horiz-adv-x="1000" 
d="M228 48q-3 -22 -21 -38t-41 -16t-36 16t-10 38t20.5 38t40.5 16t36.5 -16t10.5 -38zM561 48q-3 -22 -21 -38t-41 -16t-36 16t-10 38t20.5 38t40.5 16t36.5 -16t10.5 -38zM894 48q-3 -22 -21 -38t-41 -16t-36 16t-10 38t20.5 38t40.5 16t36.5 -16t10.5 -38z" />
    <glyph glyph-name="perthousand" unicode="&#x2030;" horiz-adv-x="1000" 
d="M411 566q-9 -63 -60.5 -108.5t-114.5 -45.5t-101.5 45.5t-29.5 108.5q8 63 59 108.5t115 45.5q63 0 101.5 -45.5t30.5 -108.5zM357 566q5 41 -19.5 70.5t-65.5 29.5t-74.5 -29.5t-38.5 -70.5q-6 -41 18.5 -70.5t65.5 -29.5t74.5 29.5t39.5 70.5zM645 142
q-9 -63 -60.5 -108.5t-114.5 -45.5t-101.5 45.5t-29.5 108.5t60.5 108.5t114.5 45.5t101.5 -45.5t29.5 -108.5zM591 142q6 41 -19 70.5t-66 29.5t-74 -29.5t-39 -70.5t19 -70.5t66 -29.5t74 29.5t39 70.5zM995 142q-9 -63 -60.5 -108.5t-114.5 -45.5t-101.5 45.5
t-29.5 108.5t60.5 108.5t114.5 45.5t101.5 -45.5t29.5 -108.5zM941 142q6 41 -19 70.5t-66 29.5t-74 -29.5t-39 -70.5t19 -70.5t66 -29.5t74 29.5t39 70.5zM675 712l-554 -743l-49 27l556 743z" />
    <glyph glyph-name="guilsinglleft" unicode="&#x2039;" horiz-adv-x="315" 
d="M165 240l90 -176l-52 -33l-110 209l169 209l42 -33z" />
    <glyph glyph-name="guilsinglright" unicode="&#x203a;" horiz-adv-x="315" 
d="M218 240l-91 176l52 33l111 -209l-170 -209l-42 33z" />
    <glyph glyph-name="fraction" unicode="&#x2044;" horiz-adv-x="168" 
d="M-119 -32l-48 32l555 740l47 -31z" />
    <glyph glyph-name="Euro" unicode="&#x20ac;" 
d="M614 680l-30 -62q-47 39 -129 39q-149 0 -211 -182h283l-25 -56h-275q-9 -46 -14 -76q-1 -10 -3 -28l-3 -27h240l-25 -55h-216q5 -185 144 -185q39 0 75.5 18t58.5 46l42 -34q-33 -44 -85 -67t-109 -23q-103 0 -151.5 65.5t-49.5 179.5h-75l27 55h49q4 38 7 58
q4 29 13 73h-69l28 56h57q41 122 119 183.5t178 61.5q41 0 83.5 -12t65.5 -28z" />
    <glyph glyph-name="afii61289" unicode="&#x2113;" horiz-adv-x="481" 
d="M444 145l29 -28q-83 -124 -200 -124q-80 0 -112.5 53.5t-24.5 136.5l2 14q-8 -6 -30.5 -22.5t-34.5 -25.5l-17 39q76 58 90 70l40 280q17 127 68.5 183.5t114.5 56.5q59 0 83.5 -45t15.5 -116q-24 -168 -261 -374l-4 -32q-11 -84 15 -124.5t74 -40.5q45 0 85 29.5
t67 69.5zM249 544l-32 -233q186 177 203 304q17 112 -59 112q-34 0 -66 -44.5t-46 -138.5z" />
    <glyph glyph-name="trademark" unicode="&#x2122;" horiz-adv-x="1000" 
d="M501 708l-8 -54h-133l-50 -358h-60l50 358h-136l8 54h329zM1028 708l-58 -412h-60l48 346h-2l-187 -346h-39l-91 346h-2l-48 -346h-60l58 412h93l84 -316l174 316h90z" />
    <glyph glyph-name="Omega" unicode="&#x2126;" horiz-adv-x="722" 
d="M211 55v3q-53 53 -80 135.5t-13 183.5q21 149 120 244t227 95q129 0 196.5 -97.5t48.5 -236.5q-15 -105 -67.5 -190t-117.5 -134v-3h153l-8 -55h-236l6 41q72 44 128.5 129.5t72.5 199.5q10 70 -5 134.5t-62 110t-118 45.5q-104 0 -179.5 -84t-92.5 -208
q-16 -107 17.5 -196t91.5 -131l-6 -41h-236l8 55h152z" />
    <glyph glyph-name="estimated" unicode="&#x212e;" horiz-adv-x="984" 
d="M949 344h-659q-5 0 -5 -5v-199q0 -12 9 -23q105 -108 249 -108q77 0 145 32.5t117 88.5h58q-55 -65 -139.5 -103t-181.5 -38q-168 0 -287 107t-119 258t119 258.5t287 107.5q169 0 288 -107t119 -259v-10zM799 370v200q0 14 -9 24q-106 104 -247 104q-143 0 -248 -107
q-10 -10 -10 -25v-196q0 -7 5 -7h505q4 0 4 7z" />
    <glyph glyph-name="partialdiff" unicode="&#x2202;" horiz-adv-x="543" 
d="M198 686l-17 49q78 56 172 56q103 0 162 -98.5t33 -283.5q-26 -184 -109 -300.5t-207 -116.5q-90 0 -130.5 68.5t-27.5 163.5q17 114 90 185.5t160 71.5q62 0 101.5 -32.5t52.5 -66.5h1q1 6 2.5 14t2.5 18t2 14q19 136 -24.5 221.5t-123.5 85.5q-72 0 -140 -49zM246 48h1
q70 0 128.5 77t84.5 188q-8 41 -43.5 77.5t-90.5 36.5q-64 0 -118.5 -59.5t-65.5 -142.5q-11 -78 17 -127.5t87 -49.5z" />
    <glyph glyph-name="uni2206" unicode="&#x2206;" horiz-adv-x="646" 
d="M32 0l7 48l350 677h76l157 -677l-7 -48h-583zM107 55h444l-95 401q-4 23 -21 93t-20 96h-4q-9 -21 -42.5 -86t-43.5 -86z" />
    <glyph glyph-name="product" unicode="&#x220f;" horiz-adv-x="794" 
d="M768 644h-110v-741h-66v741h-291v-741h-65v741h-110v61h642v-61z" />
    <glyph glyph-name="summation" unicode="&#x2211;" horiz-adv-x="652" 
d="M630 -97h-508v45l274 354l-261 356v47h479v-58h-387v-3l246 -332l-265 -343v-3h422v-63z" />
    <glyph glyph-name="minus" unicode="&#x2212;" horiz-adv-x="666" 
d="M635 333l-9 -60h-510l9 60h510z" />
    <glyph glyph-name="uni2215" unicode="&#x2215;" horiz-adv-x="168" 
d="M-119 -32l-48 32l555 740l47 -31z" />
    <glyph glyph-name="uni2219" unicode="&#x2219;" horiz-adv-x="278" 
d="M237 314q-3 -22 -20.5 -38t-40.5 -16t-36.5 16t-10.5 38t21 38t41 16t36 -16t10 -38z" />
    <glyph glyph-name="radical" unicode="&#x221a;" horiz-adv-x="670" 
d="M669 837l-222 -990h-60l-162 473l-75 -28l-14 42l131 51l132 -385q11 -41 17 -71h1q6 36 13 71l189 837h50z" />
    <glyph glyph-name="infinity" unicode="&#x221e;" horiz-adv-x="842" 
d="M791 294v-1q0 -70 -45 -114t-107 -44q-46 0 -86.5 28t-98.5 93q-27 -30 -42.5 -45.5t-41 -36.5t-52 -30t-55.5 -9q-61 0 -105 45t-44 109q0 68 44.5 112.5t111.5 44.5q51 0 94.5 -31.5t92.5 -89.5q60 66 88 86q48 35 101 35q65 0 105 -42.5t40 -109.5zM269 179h2
q16 0 32 6t27.5 12t28.5 21t24 21.5t25 26t21 22.5q-24 30 -36 43t-35 34t-46 30t-49 9q-47 0 -74.5 -34t-27.5 -82q0 -46 30 -77.5t78 -31.5zM641 404h-1q-24 0 -50.5 -14.5t-40.5 -26.5t-40 -40t-29 -31q59 -63 92 -88t70 -25q46 0 74 33.5t28 77.5q0 53 -29 83.5
t-74 30.5z" />
    <glyph glyph-name="integral" unicode="&#x222b;" horiz-adv-x="452" 
d="M438 846l-13 -47q-15 11 -36 11q-33 0 -51 -24q-35 -42 -35 -182q0 -78 6.5 -254t6.5 -258q0 -139 -44 -204q-31 -48 -95 -48q-38 0 -63 16l13 49q24 -12 45 -12q30 0 47 23q36 47 36 177q0 82 -7 260.5t-7 256.5q0 158 53 212q35 38 90 38q28 0 54 -14z" />
    <glyph glyph-name="approxequal" unicode="&#x2248;" horiz-adv-x="626" 
d="M551 431l28 -25q-47 -94 -128 -94q-20 0 -40 6t-33.5 13t-44.5 24q-62 34 -95 34q-32 0 -54.5 -19.5t-45.5 -55.5l-30 23q48 95 137 95q17 0 35.5 -5t27.5 -9.5t28.5 -15.5t21.5 -12q4 -2 14.5 -8t14 -7.5t12 -6t13.5 -6t12.5 -3.5t14.5 -3t15 -1q30 0 52 18t45 58z
M551 262l28 -24q-47 -94 -128 -94q-20 0 -40 6t-33.5 13t-44.5 24q-64 34 -95 34q-33 0 -55 -19.5t-45 -56.5l-30 24q23 45 58.5 70t77.5 25q17 0 35.5 -5t29 -10t28 -14.5t21.5 -11.5q3 -2 13.5 -8t14 -7.5t12.5 -6t14 -6.5t13 -4t15 -3t15 -1q29 0 51 18t45 57z" />
    <glyph glyph-name="notequal" unicode="&#x2260;" horiz-adv-x="639" 
d="M474 506l-47 -100h161v-45h-179l-69 -149h248v-44h-266l-55 -119l-36 17l47 102h-153v44h173l68 149h-241v45h259l54 117z" />
    <glyph glyph-name="lessequal" unicode="&#x2264;" horiz-adv-x="650" 
d="M596 97l-454 227v47l454 227v-54l-405 -195v-2l405 -196v-54zM599 9h-463v46h463v-46z" />
    <glyph glyph-name="greaterequal" unicode="&#x2265;" horiz-adv-x="650" 
d="M142 598l454 -227v-47l-453 -227v54l404 195v2l-405 196v54zM598 9h-461v46h461v-46z" />
    <glyph glyph-name="lozenge" unicode="&#x25ca;" horiz-adv-x="670" 
d="M615 352l-203 -397h-54l-201 397l203 398h54zM554 350l-148 290q-9 18 -19 52h-3q-7 -27 -19 -52l-147 -286l149 -292q12 -26 18 -51h3q5 22 18 50z" />
    <glyph glyph-name="fi" unicode="&#xfb01;" horiz-adv-x="537" 
d="M356 468l-9 -60h-111l-57 -408h-66l57 408h-99l9 60h99l18 128q24 172 181 172q24 0 56 -7l-20 -60q-28 7 -50 7q-51 0 -72.5 -31t-29.5 -89l-17 -120h111zM516 468l-66 -468h-66l66 468h66zM556 648q-3 -20 -19.5 -34t-35.5 -14t-31.5 14t-9.5 34t19.5 34t35.5 14
t31.5 -14t9.5 -34z" />
    <glyph glyph-name="fl" unicode="&#xfb02;" horiz-adv-x="537" 
d="M356 468l-9 -60h-111l-57 -408h-66l57 408h-99l9 60h99l18 128q24 172 181 172q24 0 56 -7l-20 -60q-28 7 -50 7q-51 0 -72.5 -31t-29.5 -89l-17 -120h111zM556 756l-106 -756h-66l106 756h66z" />
    <glyph glyph-name="a.superior" horiz-adv-x="337" 
d="M196 424q-44 0 -72 21.5t-22 61.5q7 49 50.5 74.5t138.5 25.5h22l1 8q4 28 -10.5 42.5t-45.5 14.5q-50 0 -93 -30l-27 37q50 41 125 41q67 0 92.5 -28.5t21.5 -61.5l-20 -137q-1 -4 -4 -63h-54l2 36h-1q-34 -42 -104 -42zM307 559h-13q-124 0 -131 -49q-3 -18 13 -28
t40 -10q79 0 91 87z" />
    <glyph glyph-name="o.superior" horiz-adv-x="385" 
d="M434 571q-9 -63 -60 -105t-122 -42q-70 0 -110 42t-31 105q9 65 60.5 107t121.5 42q71 0 110.5 -42t30.5 -107zM374 571q6 42 -19 71.5t-69 29.5q-43 0 -76 -29.5t-39 -71.5q-5 -41 19.5 -70t67.5 -29q44 0 77.5 29t38.5 70z" />
    <glyph glyph-name="one.superior" horiz-adv-x="361" 
d="M325 714l-59 -425h-60l51 365l-91 -67l-24 38l129 89h54z" />
    <glyph glyph-name="two.superior" horiz-adv-x="361" 
d="M375 343l-7 -54h-293l8 57l194 164q21 18 32 28.5t24 30t15 37.5q4 24 -17.5 42t-49.5 18q-32 0 -58.5 -16t-37.5 -40l-55 9q16 48 58.5 74.5t96.5 26.5q59 0 95 -29t29 -81q-4 -30 -24 -59.5t-37.5 -46t-52.5 -44.5l-147 -117h227z" />
    <glyph glyph-name="three.superior" horiz-adv-x="361" 
d="M198 483l7 54h24q43 0 74.5 17.5t35.5 49.5q4 27 -14 44.5t-49 17.5q-29 0 -49.5 -10t-43.5 -36l-42 33q55 67 141 67q56 0 90.5 -29.5t27.5 -80.5q-5 -34 -32 -61t-64 -38v-2q43 -7 64 -35.5t16 -68.5q-8 -57 -54.5 -89.5t-109.5 -32.5q-110 0 -134 86l56 30
q8 -31 28.5 -46.5t60.5 -15.5q30 0 59.5 22t33.5 47q4 30 -16.5 53.5t-80.5 23.5h-29z" />
    </font>
</defs>
</svg>
